<svg width="66" height="61" viewBox="0 0 66 61" fill="none" xmlns="http://www.w3.org/2000/svg">
<g clip-path="url(#clip0)">
<path d="M52.0487 15.4215C53.1024 10.0589 52.5131 5.98896 50.0226 4.37161C49.1925 3.8325 48.1972 3.59658 47.077 3.63911C41.0282 3.86875 31.2682 12.1973 23.294 24.4766C13.843 39.0298 10.4844 53.6149 15.7975 57.0653C18.3195 58.7031 22.3384 57.5421 26.8786 54.3067" stroke="#363636" stroke-width="2.49364" stroke-linecap="round"/>
<path d="M56.8957 39.2203C61.3815 37.4801 64.1398 35.0983 64.2831 32.3627C64.6147 26.0363 50.8468 20.1793 33.5179 19.2712C31.8933 19.186 30.2958 19.1412 28.7332 19.1465C13.6281 19.1973 1.83745 23.3409 1.53698 29.0743C1.3939 31.8044 3.88124 34.4517 8.14512 36.6487" stroke="#363636" stroke-width="2.49364" stroke-linecap="round"/>
<path d="M28.6241 5.99244C25.555 3.44599 22.6766 2.07853 20.364 2.25198C19.7482 2.29816 19.1788 2.44991 18.6496 2.71954C13.005 5.59562 14.8082 20.4703 22.6862 35.9317C30.5641 51.393 41.5259 61.5934 47.1706 58.7173C52.5989 55.9514 51.1338 42.0908 44.0068 27.2819" stroke="#363636" stroke-width="2.49364" stroke-linecap="round"/>
<path d="M36.8531 31.1628C36.8531 32.1548 36.459 33.1062 35.7575 33.8077C35.0561 34.5091 34.1047 34.9032 33.1126 34.9032C32.1206 34.9032 31.1692 34.5091 30.4677 33.8077C29.7663 33.1062 29.3722 32.1548 29.3722 31.1628C29.3722 30.1707 29.7663 29.2193 30.4677 28.5179C31.1692 27.8164 32.1206 27.4223 33.1126 27.4223C34.1047 27.4223 35.0561 27.8164 35.7575 28.5179C36.459 29.2193 36.8531 30.1707 36.8531 31.1628V31.1628Z" fill="#363636"/>
</g>
<defs>
<clipPath id="clip0">
<rect width="65.3333" height="59.8473" fill="white" transform="translate(0.196716 0.740387)"/>
</clipPath>
</defs>
</svg>
