<svg width="44" height="66" viewBox="0 0 44 66" fill="none" xmlns="http://www.w3.org/2000/svg">
<g clip-path="url(#clip0)">
<path d="M11.412 65.5504C17.4074 65.5504 22.2732 60.6836 22.2732 54.687V43.8236H11.412C5.41666 43.8236 0.550841 48.6904 0.550841 54.687C0.550841 60.6836 5.41666 65.5504 11.412 65.5504Z" fill="#363636"/>
<path d="M0.550841 32.9603C0.550841 26.9637 5.41666 22.0969 11.412 22.0969H22.2732V43.8236H11.412C5.41666 43.8236 0.550841 38.9568 0.550841 32.9603Z" fill="#363636"/>
<path d="M0.551224 11.2336C0.551224 5.237 5.41704 0.370209 11.4124 0.370209H22.2736V22.0969H11.4124C5.41704 22.0969 0.551224 17.2302 0.551224 11.2336Z" fill="#363636"/>
<path d="M22.2732 0.370209H33.1344C39.1298 0.370209 43.9956 5.237 43.9956 11.2336C43.9956 17.2302 39.1298 22.0969 33.1344 22.0969H22.2732V0.370209Z" fill="#363636"/>
<path d="M43.9956 32.9603C43.9956 38.9568 39.1298 43.8236 33.1344 43.8236C27.139 43.8236 22.2732 38.9568 22.2732 32.9603C22.2732 26.9637 27.139 22.0969 33.1344 22.0969C39.1298 22.0969 43.9956 26.9637 43.9956 32.9603Z" fill="#363636"/>
</g>
<defs>
<clipPath id="clip0">
<rect width="43.4535" height="65.1802" fill="white" transform="translate(0.546509 0.370178)"/>
</clipPath>
</defs>
</svg>
