<svg width="74" height="72" viewBox="0 0 74 72" fill="none" xmlns="http://www.w3.org/2000/svg">
<g filter="url(#filter0_d)">
<path d="M4 35.6113C4 50.0418 13.3289 62.2298 26.2834 66.5511C27.9129 66.8369 28.524 65.8586 28.524 65.0031C28.524 64.2278 28.4832 61.6601 28.4832 58.9288C20.295 60.4361 18.1767 56.9302 17.5249 55.0964C17.1582 54.1588 15.5695 51.2645 14.1844 50.4899C13.0437 49.8782 11.4142 48.3703 14.1436 48.3296C16.7101 48.2888 18.5433 50.6936 19.1544 51.6719C22.0875 56.6043 26.7723 55.2192 28.6462 54.3625C28.9314 52.2429 29.7868 50.8152 30.7238 50.0004C23.4725 49.1857 15.8954 46.3729 15.8954 33.8997C15.8954 30.3524 17.1582 27.4174 19.2358 25.1349C18.9099 24.3201 17.7693 20.9771 19.5617 16.4923C19.5617 16.4923 22.2911 15.6368 28.524 19.8352C31.1312 19.102 33.9013 18.7347 36.6715 18.7347C39.4416 18.7347 42.2118 19.102 44.819 19.8352C51.0518 15.596 53.7812 16.4929 53.7812 16.4929C55.5737 20.9765 54.433 24.3189 54.1071 25.1343C56.1847 27.4168 57.4476 30.311 57.4476 33.8985C57.4476 46.413 49.8297 49.1844 42.5784 50.0004C43.7598 51.0195 44.7782 52.9761 44.7782 56.0333C44.7782 60.3954 44.7375 63.9007 44.7375 65.0018C44.7375 65.8573 45.3486 66.8758 46.9781 66.5499C59.8511 62.2304 69.18 50.0017 69.18 35.6119C69.18 17.5928 54.596 3 36.59 3C18.584 3 4 17.5934 4 35.6113Z" fill="#363636"/>
</g>
<g filter="url(#filter1_i)">
<path d="M4 35.6113C4 50.0418 13.3289 62.2298 26.2834 66.5511C27.9129 66.8369 28.524 65.8586 28.524 65.0031C28.524 64.2278 28.4832 61.6601 28.4832 58.9288C20.295 60.4361 18.1767 56.9302 17.5249 55.0964C17.1582 54.1588 15.5695 51.2645 14.1844 50.4899C13.0437 49.8782 11.4142 48.3703 14.1436 48.3296C16.7101 48.2888 18.5433 50.6936 19.1544 51.6719C22.0875 56.6043 26.7723 55.2192 28.6462 54.3625C28.9314 52.2429 29.7868 50.8152 30.7238 50.0004C23.4725 49.1857 15.8954 46.3729 15.8954 33.8997C15.8954 30.3524 17.1582 27.4174 19.2358 25.1349C18.9099 24.3201 17.7693 20.9771 19.5617 16.4923C19.5617 16.4923 22.2911 15.6368 28.524 19.8352C31.1312 19.102 33.9013 18.7347 36.6715 18.7347C39.4416 18.7347 42.2118 19.102 44.819 19.8352C51.0518 15.596 53.7812 16.4929 53.7812 16.4929C55.5737 20.9765 54.433 24.3189 54.1071 25.1343C56.1847 27.4168 57.4476 30.311 57.4476 33.8985C57.4476 46.413 49.8297 49.1844 42.5784 50.0004C43.7598 51.0195 44.7782 52.9761 44.7782 56.0333C44.7782 60.3954 44.7375 63.9007 44.7375 65.0018C44.7375 65.8573 45.3486 66.8758 46.9781 66.5499C59.8511 62.2304 69.18 50.0017 69.18 35.6119C69.18 17.5928 54.596 3 36.59 3C18.584 3 4 17.5934 4 35.6113Z" fill="#363636"/>
</g>
<defs>
<filter id="filter0_d" x="0" y="0" width="73.18" height="71.6121" filterUnits="userSpaceOnUse" color-interpolation-filters="sRGB">
<feFlood flood-opacity="0" result="BackgroundImageFix"/>
<feColorMatrix in="SourceAlpha" type="matrix" values="0 0 0 0 0 0 0 0 0 0 0 0 0 0 0 0 0 0 127 0"/>
<feOffset dy="1"/>
<feGaussianBlur stdDeviation="2"/>
<feColorMatrix type="matrix" values="0 0 0 0 1 0 0 0 0 1 0 0 0 0 1 0 0 0 0.529297 0"/>
<feBlend mode="normal" in2="BackgroundImageFix" result="effect1_dropShadow"/>
<feBlend mode="normal" in="SourceGraphic" in2="effect1_dropShadow" result="shape"/>
</filter>
<filter id="filter1_i" x="4" y="3" width="65.18" height="63.6121" filterUnits="userSpaceOnUse" color-interpolation-filters="sRGB">
<feFlood flood-opacity="0" result="BackgroundImageFix"/>
<feBlend mode="normal" in="SourceGraphic" in2="BackgroundImageFix" result="shape"/>
<feColorMatrix in="SourceAlpha" type="matrix" values="0 0 0 0 0 0 0 0 0 0 0 0 0 0 0 0 0 0 127 0" result="hardAlpha"/>
<feOffset/>
<feGaussianBlur stdDeviation="1"/>
<feComposite in2="hardAlpha" operator="arithmetic" k2="-1" k3="1"/>
<feColorMatrix type="matrix" values="0 0 0 0 0.258824 0 0 0 0 0.137255 0 0 0 0 0.431373 0 0 0 0.70355 0"/>
<feBlend mode="normal" in2="shape" result="effect1_innerShadow"/>
</filter>
</defs>
</svg>
