<svg width="66" height="65" viewBox="0 0 66 65" fill="none" xmlns="http://www.w3.org/2000/svg">
<g clip-path="url(#clip0)">
<path d="M11.5423 0.962738H53.6379C60.0201 0.962738 65.1802 6.11339 65.1802 12.4839V52.8759C65.1802 59.2464 60.0201 64.3971 53.6379 64.3971H11.5423C5.1601 64.3971 0 59.2464 0 52.8759V12.4839C0 6.11339 5.1601 0.962738 11.5423 0.962738Z" fill="#363636"/>
<path d="M31.5853 39.0234H21.4823L19.4183 45.3939C19.364 45.6379 19.1467 45.8005 18.9023 45.7734H13.7965C13.4978 45.7734 13.4163 45.6108 13.4978 45.2855L22.2428 20.1557C22.3243 19.8846 22.4057 19.5864 22.5144 19.2611C22.623 18.6918 22.6773 18.0955 22.6773 17.4991C22.6502 17.3635 22.7588 17.228 22.8946 17.2009C22.9217 17.2009 22.9489 17.2009 22.9761 17.2009H29.9286C30.1459 17.2009 30.2545 17.2822 30.2817 17.4177L40.1945 45.3397C40.276 45.6379 40.1945 45.7734 39.9229 45.7734H34.2468C34.0567 45.8005 33.8666 45.665 33.8123 45.4752L31.5853 39.0234ZM23.0575 33.5203H29.9558C29.7928 32.951 29.5756 32.2733 29.3311 31.5685C29.0867 30.8365 28.8423 30.0504 28.5979 29.2371C28.3263 28.3968 28.0818 27.5835 27.8103 26.7431C27.5387 25.9028 27.2942 25.1166 27.077 24.3304C26.8597 23.5714 26.6696 22.8666 26.4795 22.216H26.4252C26.1808 23.3816 25.882 24.5473 25.5018 25.713C25.0944 27.0142 24.687 28.3696 24.2525 29.7251C23.8723 31.1076 23.4649 32.3817 23.0575 33.5203Z" fill="#F0F0F3"/>
<path d="M46.1151 21.8364C45.2188 21.8636 44.3498 21.5111 43.698 20.8876C43.0733 20.2099 42.7474 19.3153 42.7746 18.3936C42.7474 17.4719 43.1005 16.6045 43.7523 15.981C44.4041 15.3575 45.2732 15.0322 46.1694 15.0322C47.2286 15.0322 48.0433 15.3575 48.6408 15.981C49.2383 16.6316 49.5642 17.4991 49.537 18.3936C49.5642 19.3153 49.2383 20.2099 48.5865 20.8876C47.9618 21.5382 47.0385 21.8907 46.1151 21.8364ZM43.0733 45.3668V24.4931C43.0733 24.222 43.182 24.1136 43.4264 24.1136H48.8037C49.0482 24.1136 49.1568 24.2491 49.1568 24.4931V45.3668C49.1568 45.665 49.0482 45.8005 48.8037 45.8005H43.4807C43.2091 45.8005 43.0733 45.6379 43.0733 45.3668Z" fill="#F0F0F3"/>
</g>
<defs>
<clipPath id="clip0">
<rect width="65.1802" height="63.4343" fill="white" transform="translate(0 0.962738)"/>
</clipPath>
</defs>
</svg>
