<svg width="66" height="70" viewBox="0 0 66 70" fill="none" xmlns="http://www.w3.org/2000/svg">
<g clip-path="url(#clip0)">
<path d="M23.4381 2.17756C12.8227 2.96281 3.7984 3.68497 3.37411 3.76953C2.18447 3.98161 1.10225 4.78834 0.593368 5.8501L0.147591 6.78435L0.190557 29.0505L0.253664 51.3166L0.933072 52.6965C1.31574 53.4603 3.90582 57.0268 6.72952 60.698C12.3138 67.9357 12.7166 68.3397 14.8395 68.5518C15.4558 68.6149 20.0841 68.4028 25.095 68.1062C30.1275 67.788 38.1944 67.2994 43.0362 67.0243C63.7152 65.7692 62.6531 65.8753 63.8414 64.8565C65.3278 63.6256 65.2217 65.6417 65.2848 38.5795C65.3278 15.6342 65.3063 14.1281 64.9666 13.4274C64.5638 12.6422 63.8414 12.0905 54.4143 5.46755C48.109 1.05271 47.6632 0.819146 44.8381 0.776192C43.6713 0.734581 34.0321 1.37083 23.4381 2.17756V2.17756ZM47.302 5.08499C48.1936 5.48768 54.7124 10.03 55.667 10.9012C55.9222 11.1562 56.0068 11.3683 55.8792 11.4958C55.5825 11.7509 15.2409 14.1496 14.0741 13.9791C13.5437 13.8945 12.7583 13.5764 12.3125 13.2784C10.4649 12.026 5.87959 8.26893 5.87959 7.99376C5.87959 7.2716 5.73055 7.2716 23.7147 5.97762C27.1547 5.74406 32.8021 5.31989 36.2422 5.04338C43.6928 4.44874 45.923 4.47021 47.302 5.08499V5.08499ZM60.1262 16.6959C60.4229 16.9926 60.678 17.5657 60.7626 18.1174C60.8257 18.6275 60.8687 28.1364 60.8257 39.2158C60.7626 58.2335 60.7411 59.4228 60.3799 59.9745C60.1678 60.3141 59.7435 60.6752 59.4239 60.7812C58.5337 61.1423 16.2614 63.541 15.3913 63.286C14.9885 63.1799 14.4353 62.8403 14.1386 62.5437L13.6283 61.992L13.5652 41.4883C13.5223 27.0974 13.5652 20.7295 13.7358 20.1564C13.8633 19.7322 14.1815 19.2221 14.4581 19.053C14.8408 18.798 17.3463 18.5859 25.9664 18.0771C32.018 17.7375 41.3807 17.1644 46.7528 16.8463C59.5313 16.0597 59.4897 16.0597 60.1262 16.6959V16.6959Z" fill="#363636"/>
<path d="M48.7669 23.7216C46.4736 23.8706 44.4353 24.0826 44.2017 24.2102C43.5008 24.5712 43.0765 25.1659 42.9919 25.8451C42.9288 26.5458 43.141 26.6303 45.433 26.9069L46.4306 27.0344V36.0976C46.4306 41.4883 46.346 45.0548 46.2399 44.9488C46.1339 44.8212 43.1195 40.2373 39.5304 34.7607C35.9427 29.2639 32.97 24.7417 32.927 24.7001C32.8841 24.6572 30.5491 24.7847 27.7469 24.9766C24.3069 25.2102 22.4177 25.4223 22.035 25.6344C21.4187 25.9525 20.7393 27.0773 20.7393 27.821C20.7393 28.2666 21.5463 28.5002 23.2448 28.5002H24.1363V54.565L22.6929 55.0107C21.5678 55.3503 21.1851 55.5624 20.9944 55.9865C20.6547 56.7087 20.6762 57.3664 21.0159 57.3664C21.1435 57.3664 23.5429 57.2174 26.3021 57.0483C31.7589 56.7302 32.3738 56.5812 32.9472 55.4563C33.1177 55.1167 33.2654 54.7556 33.2654 54.6496C33.2654 54.565 32.5229 54.31 31.63 54.0979C30.7169 53.8858 29.8039 53.6737 29.6132 53.6308C29.252 53.5247 29.2306 52.867 29.2306 43.7393V33.9539L35.6849 44.0789C42.4575 54.6912 43.3075 55.902 44.3481 56.4322C45.6438 57.1114 48.9347 56.6442 50.5903 55.5624L51.1005 55.2442L51.1435 40.7688L51.2066 26.2719L52.3318 26.0599C53.6691 25.8048 54.2854 25.19 54.2854 24.1283C54.2854 23.4491 54.2425 23.4061 53.606 23.4276C53.226 23.4451 51.0388 23.5726 48.7669 23.7216V23.7216Z" fill="#363636"/>
</g>
<defs>
<clipPath id="clip0">
<rect width="65.1802" height="69.3495" fill="white" transform="translate(0.147583)"/>
</clipPath>
</defs>
</svg>
