<svg width="66" height="65" viewBox="0 0 66 65" fill="none" xmlns="http://www.w3.org/2000/svg">
<g clip-path="url(#clip0)">
<path d="M12.291 0.962738H54.3866C60.7688 0.962738 65.9289 6.12284 65.9289 12.5051V52.9711C65.9289 59.3533 60.7688 64.5134 54.3866 64.5134H12.291C5.90879 64.5134 0.748688 59.3533 0.748688 52.9711V12.5051C0.748688 6.12284 5.90879 0.962738 12.291 0.962738Z" fill="#363636"/>
<path d="M16.229 45.5297V17.5837C16.229 17.3936 16.3105 17.285 16.5006 17.285C16.9623 17.285 17.3968 17.285 18.0215 17.2578C18.6733 17.2306 19.3522 17.2306 20.0855 17.2035C20.8188 17.1763 21.6064 17.1763 22.4483 17.1492C23.2902 17.122 24.105 17.122 24.9197 17.122C27.1467 17.122 28.9935 17.3936 30.5143 17.9639C31.8723 18.4256 33.1216 19.1861 34.1536 20.1909C35.0226 21.06 35.7016 22.1192 36.1361 23.287C36.5435 24.4276 36.7608 25.5954 36.7608 26.8176C36.7608 29.1532 36.2176 31.0814 35.1313 32.6023C34.0449 34.1232 32.5241 35.2638 30.7588 35.9156C28.912 36.5946 26.8751 36.839 24.6481 36.839C23.9963 36.839 23.5618 36.839 23.2902 36.8119C23.0186 36.7847 22.6384 36.7847 22.1224 36.7847V45.5026C22.1496 45.6927 22.0138 45.8556 21.8237 45.8828C21.7965 45.8828 21.7693 45.8828 21.715 45.8828H16.5549C16.3377 45.8828 16.229 45.7741 16.229 45.5297ZM22.1496 22.5265V31.6518C22.5298 31.6789 22.8828 31.7061 23.2087 31.7061H24.6481C25.7073 31.7061 26.7665 31.5431 27.7713 31.2172C28.6404 30.9728 29.4009 30.4568 29.9983 29.7778C30.5687 29.0989 30.8402 28.1755 30.8402 26.9805C30.8674 26.1386 30.6501 25.2967 30.2156 24.5634C29.7539 23.8573 29.1021 23.3141 28.3145 23.0154C27.3097 22.608 26.2233 22.4451 25.1098 22.4722C24.4037 22.4722 23.7791 22.4722 23.263 22.4994C22.7199 22.4722 22.3397 22.4994 22.1496 22.5265Z" fill="#F0F0F3"/>
<path d="M40.563 24.1017H45.3157C45.5873 24.1017 45.8045 24.2918 45.886 24.5363C45.9675 24.7535 46.0218 24.9708 46.049 25.2152C46.1033 25.4868 46.1576 25.7855 46.1847 26.0571C46.2119 26.3559 46.2391 26.6818 46.2391 27.0348C47.0538 26.0843 48.0315 25.2967 49.145 24.6992C50.3943 23.9931 51.8337 23.64 53.2731 23.64C53.4632 23.6129 53.6261 23.7487 53.6533 23.9388C53.6533 23.9659 53.6533 23.9931 53.6533 24.0474V29.3433C53.6533 29.5606 53.5175 29.642 53.2188 29.642C52.2411 29.6149 51.2362 29.6964 50.2857 29.9136C49.4981 30.0766 48.7376 30.321 48.0044 30.6469C47.4883 30.8913 46.9995 31.2172 46.6193 31.6518V45.5026C46.6193 45.7741 46.5106 45.8828 46.2662 45.8828H40.916C40.6987 45.9099 40.5086 45.7741 40.4815 45.5569C40.4815 45.5297 40.4815 45.4754 40.4815 45.4482V30.4025C40.4815 29.7507 40.4815 29.0717 40.4543 28.3656C40.4272 27.6595 40.4272 26.9534 40.4 26.2472C40.4 25.6226 40.3457 25.0251 40.2914 24.4005C40.2642 24.2647 40.3457 24.1289 40.4815 24.1017C40.4815 24.0746 40.5358 24.0746 40.563 24.1017Z" fill="#F0F0F3"/>
</g>
<defs>
<clipPath id="clip0">
<rect width="65.1802" height="63.5507" fill="white" transform="translate(0.748688 0.962738)"/>
</clipPath>
</defs>
</svg>
