<svg width="41" height="40" viewBox="0 0 41 40" fill="none" xmlns="http://www.w3.org/2000/svg">
<g clip-path="url(#clip0)">
<path fill-rule="evenodd" clip-rule="evenodd" d="M20.5 0C9.45 0 0.5 8.95 0.5 20C0.5 28.85 6.225 36.325 14.175 38.975C15.175 39.15 15.55 38.55 15.55 38.025C15.55 37.55 15.525 35.975 15.525 34.3C10.5 35.225 9.2 33.075 8.8 31.95C8.575 31.375 7.6 29.6 6.75 29.125C6.05 28.75 5.05 27.825 6.725 27.8C8.3 27.775 9.425 29.25 9.8 29.85C11.6 32.875 14.475 32.025 15.625 31.5C15.8 30.2 16.325 29.325 16.9 28.825C12.45 28.325 7.8 26.6 7.8 18.95C7.8 16.775 8.575 14.975 9.85 13.575C9.65 13.075 8.95 11.025 10.05 8.275C10.05 8.275 11.725 7.75 15.55 10.325C17.15 9.875 18.85 9.65 20.55 9.65C22.25 9.65 23.95 9.875 25.55 10.325C29.375 7.725 31.05 8.275 31.05 8.275C32.15 11.025 31.45 13.075 31.25 13.575C32.525 14.975 33.3 16.75 33.3 18.95C33.3 26.625 28.625 28.325 24.175 28.825C24.9 29.45 25.525 30.65 25.525 32.525C25.525 35.2 25.5 37.35 25.5 38.025C25.5 38.55 25.875 39.175 26.875 38.975C34.775 36.325 40.5 28.825 40.5 20C40.5 8.95 31.55 0 20.5 0Z" fill="#363636"/>
</g>
<defs>
<clipPath id="clip0">
<rect width="40" height="40" fill="white" transform="translate(0.5)"/>
</clipPath>
</defs>
</svg>
