<svg width="40" height="40" viewBox="0 0 40 40" fill="none" xmlns="http://www.w3.org/2000/svg">
<path d="M23.6437 17.1577C21.9326 17.1577 21.1665 18.0987 20.7387 18.7593V17.3865H17.5146C17.5565 18.2952 17.5146 27.0868 17.5146 27.0868H20.7387V21.6683C20.7387 21.3783 20.7588 21.0883 20.8442 20.882C21.0778 20.302 21.6079 19.7018 22.4989 19.7018C23.6655 19.7018 24.1319 20.592 24.1319 21.8955V27.086H27.3559H27.3567V21.5225C27.3567 18.5442 25.7657 17.1577 23.6437 17.1577ZM20.7379 18.7931H20.7169C20.7242 18.7818 20.7322 18.7713 20.7379 18.7601V18.7931V18.7931Z" fill="#363636"/>
<path d="M15.7295 17.3867H12.5055V27.087H15.7295V17.3867Z" fill="#363636"/>
<path d="M20 0C8.97205 0 0 8.97205 0 20C0 31.028 8.97205 40 20 40C31.028 40 40 31.028 40 20C40 8.97205 31.028 0 20 0ZM30.6058 29.0462C30.6058 29.8953 29.9001 30.5849 29.0276 30.5849H10.8362C9.96616 30.5849 9.25965 29.8961 9.25965 29.0462V10.6429C9.25965 9.79296 9.96616 9.10417 10.8362 9.10417H29.0276C29.8993 9.10417 30.6058 9.79376 30.6058 10.6429V29.0462V29.0462Z" fill="#363636"/>
<path d="M14.1392 12.71C13.0371 12.71 12.3153 13.4334 12.3153 14.3856C12.3153 15.3161 13.0154 16.0613 14.0965 16.0613H14.1174C15.2421 16.0613 15.9421 15.3161 15.9421 14.3856C15.9204 13.4342 15.2429 12.71 14.1392 12.71Z" fill="#363636"/>
</svg>
