<svg width="232" height="90" viewBox="0 0 232 90" fill="none" xmlns="http://www.w3.org/2000/svg">
<path d="M55.7155 43.3065C55.7155 43.8694 55.9893 44.1509 56.5369 44.1509H60.9466C61.4797 44.1509 61.7463 43.8694 61.7463 43.3065V18.4512C61.7463 18.1914 61.6743 17.9893 61.5302 17.845C61.3861 17.6862 61.1915 17.6068 60.9466 17.6068H56.5369C56.3208 17.6068 56.1262 17.679 55.9533 17.8233C55.7948 17.9532 55.7155 18.1625 55.7155 18.4512V43.3065ZM55.5426 13.0601C55.5426 13.5076 55.6651 13.8179 55.9101 13.9911C56.1551 14.1499 56.4649 14.2293 56.8396 14.2293H60.4494C60.8241 14.2293 61.1123 14.1499 61.314 13.9911C61.5302 13.8179 61.6383 13.5076 61.6383 13.0601V9.42275C61.6383 9.0186 61.5446 8.70105 61.3573 8.47011C61.1699 8.22473 60.8673 8.10204 60.4494 8.10204H56.8396C56.364 8.10204 56.0254 8.23195 55.8236 8.49176C55.6363 8.73714 55.5426 9.04747 55.5426 9.42275V13.0601Z" fill="#363636"/>
<path d="M88.9552 30.9871C88.9552 32.113 88.7535 33.1739 88.35 34.1698C87.9609 35.1658 87.4133 36.039 86.7072 36.7896C86.0011 37.5401 85.1653 38.1392 84.1998 38.5866C83.2343 39.0196 82.1895 39.2361 81.0655 39.2361C79.9703 39.2361 78.9471 39.0268 77.996 38.6083C77.0593 38.1752 76.2379 37.5907 75.5318 36.8545C74.8401 36.104 74.2925 35.2307 73.889 34.2348C73.4999 33.2244 73.3054 32.1418 73.3054 30.9871C73.3054 29.7891 73.5071 28.6849 73.9106 27.6745C74.3285 26.6641 74.8905 25.7909 75.5967 25.0547C76.3028 24.3186 77.1242 23.7485 78.0609 23.3443C79.012 22.9257 80.0135 22.7164 81.0655 22.7164C82.1607 22.7164 83.1838 22.9402 84.1349 23.3876C85.1004 23.8206 85.9362 24.4124 86.6423 25.163C87.3629 25.9136 87.9249 26.794 88.3284 27.8044C88.7463 28.8004 88.9552 29.8613 88.9552 30.9871ZM94.8347 18.4729C94.8347 17.8955 94.5609 17.6068 94.0133 17.6068H90.5548C90.2666 17.6068 90.0648 17.679 89.9496 17.8233C89.8343 17.9677 89.755 18.1842 89.7118 18.4729L89.3443 21.071C88.2203 19.7863 86.9666 18.8481 85.5832 18.2563C84.1998 17.6501 82.6074 17.347 80.8061 17.347C78.9615 17.347 77.2251 17.7079 75.5967 18.4296C73.9683 19.1513 72.5488 20.1328 71.3384 21.3741C70.1279 22.601 69.1696 24.0444 68.4634 25.7043C67.7573 27.3642 67.4043 29.1323 67.4043 31.0088C67.4043 33.0007 67.7717 34.8338 68.5067 36.5081C69.2416 38.168 70.2287 39.6042 71.4681 40.8166C72.7074 42.0147 74.134 42.9529 75.748 43.6313C77.362 44.2952 79.048 44.6272 80.8061 44.6272C82.3624 44.6272 83.8395 44.3169 85.2373 43.6962C86.6495 43.0756 87.9177 42.2167 89.0417 41.1198V42.8518C89.0417 43.2271 89.157 43.5375 89.3876 43.7828C89.6325 44.0282 89.9424 44.1509 90.317 44.1509H94.0133C94.5609 44.1509 94.8347 43.8622 94.8347 43.2849V18.4729Z" fill="#363636"/>
<path d="M106.264 28.5406C106.264 27.5735 106.437 26.7435 106.783 26.0507C107.143 25.3434 107.59 24.7661 108.123 24.3186C108.656 23.8712 109.24 23.5464 109.874 23.3443C110.508 23.1278 111.106 23.0196 111.668 23.0196C112.489 23.0196 113.217 23.1855 113.851 23.5175C114.485 23.8495 115.018 24.2753 115.451 24.7949C115.898 25.3146 116.236 25.8991 116.467 26.5487C116.697 27.1982 116.813 27.8477 116.813 28.4973V43.2849C116.813 43.8622 117.101 44.1509 117.677 44.1509H121.892C122.44 44.1509 122.714 43.8622 122.714 43.2849V28.3024C122.714 27.5663 122.858 26.8806 123.146 26.2456C123.434 25.6105 123.823 25.0547 124.313 24.5784C124.803 24.1021 125.372 23.7268 126.021 23.4526C126.669 23.1783 127.347 23.0412 128.053 23.0412C128.903 23.0412 129.652 23.2072 130.301 23.5392C130.964 23.8567 131.519 24.2825 131.965 24.8166C132.412 25.3362 132.751 25.928 132.981 26.592C133.212 27.2415 133.327 27.9055 133.327 28.5839V43.2632C133.327 43.855 133.615 44.1509 134.192 44.1509H138.385C138.947 44.1509 139.228 43.855 139.228 43.2632V28.5839C139.228 27.0827 139.026 25.6538 138.623 24.297C138.219 22.9402 137.6 21.7494 136.764 20.7246C135.943 19.6997 134.898 18.8914 133.63 18.2996C132.376 17.6934 130.892 17.3903 129.177 17.3903C128.096 17.3903 127.138 17.5058 126.302 17.7367C125.466 17.9532 124.717 18.2636 124.054 18.6677C123.391 19.0719 122.793 19.5626 122.26 20.14C121.727 20.7029 121.229 21.3308 120.768 22.0236C119.947 20.4214 118.895 19.2523 117.612 18.5162C116.344 17.7656 114.838 17.3903 113.095 17.3903C111.567 17.3903 110.169 17.7223 108.901 18.3863C107.633 19.0358 106.523 19.9596 105.572 21.1576L105.27 18.6677C105.212 18.379 105.068 18.1337 104.837 17.9316C104.607 17.7151 104.347 17.6068 104.059 17.6068H101.098C100.536 17.6068 100.255 17.9027 100.255 18.4945V43.2632C100.255 43.855 100.536 44.1509 101.098 44.1509H105.378C105.997 44.1509 106.293 43.855 106.264 43.2632V28.5406Z" fill="#363636"/>
<path d="M167.15 18.8842C167.266 18.5955 167.28 18.3141 167.194 18.0398C167.122 17.7656 166.855 17.6285 166.394 17.6285H161.963C161.458 17.6285 161.112 17.8883 160.925 18.4079L154.592 35.3606L148.366 18.4512C148.165 17.9027 147.819 17.6285 147.329 17.6285H143.416C143.272 17.6285 143.128 17.6573 142.984 17.7151C142.84 17.7584 142.717 17.8378 142.616 17.9532C142.53 18.0687 142.48 18.213 142.465 18.3863C142.451 18.5595 142.494 18.7688 142.595 19.0141L151.825 41.8559L148.323 50.8194C148.165 51.2524 148.143 51.5916 148.258 51.837C148.388 52.0824 148.669 52.2051 149.101 52.2051H153.1C153.331 52.2051 153.532 52.1473 153.705 52.0319C153.893 51.9164 154.044 51.7215 154.159 51.4473L167.15 18.8842Z" fill="#363636"/>
<path d="M171.787 43.2849C171.787 43.8622 172.061 44.1509 172.608 44.1509H176.867C177.458 44.1509 177.739 43.8622 177.71 43.2849V28.7571C177.71 27.7178 177.861 26.8301 178.164 26.094C178.466 25.3434 178.863 24.7228 179.353 24.232C179.842 23.7413 180.397 23.3804 181.017 23.1495C181.637 22.9185 182.263 22.803 182.898 22.803C183.402 22.803 183.877 22.8536 184.324 22.9546C184.771 23.0556 185.189 23.1928 185.578 23.366C185.967 23.5247 186.327 23.7052 186.659 23.9072C186.99 24.0949 187.293 24.2897 187.567 24.4918C187.812 24.665 188.028 24.7516 188.215 24.7516C188.446 24.7516 188.633 24.6362 188.777 24.4052L190.722 21.6555C190.881 21.439 190.96 21.2225 190.96 21.006C190.96 20.7751 190.802 20.5153 190.485 20.2266C190.269 20.0245 189.937 19.7647 189.49 19.4471C189.058 19.1152 188.532 18.7976 187.912 18.4945C187.307 18.177 186.63 17.9027 185.881 17.6718C185.146 17.4408 184.367 17.3254 183.546 17.3254C182.22 17.3254 181.017 17.6429 179.936 18.278C178.855 18.8987 177.969 19.7647 177.277 20.8761L176.867 18.6028C176.78 18.1409 176.615 17.8666 176.37 17.78C176.139 17.679 175.88 17.6285 175.591 17.6285H172.608C172.061 17.6285 171.787 17.9244 171.787 18.5162V43.2849Z" fill="#363636"/>
<path d="M212.449 30.9871C212.449 32.113 212.247 33.1739 211.844 34.1698C211.455 35.1658 210.907 36.039 210.201 36.7896C209.495 37.5401 208.659 38.1392 207.694 38.5866C206.728 39.0196 205.683 39.2361 204.559 39.2361C203.464 39.2361 202.441 39.0268 201.49 38.6083C200.553 38.1752 199.732 37.5907 199.026 36.8545C198.334 36.104 197.786 35.2307 197.383 34.2348C196.994 33.2244 196.799 32.1418 196.799 30.9871C196.799 29.7891 197.001 28.6849 197.404 27.6745C197.822 26.6641 198.384 25.7909 199.09 25.0547C199.797 24.3186 200.618 23.7485 201.555 23.3443C202.506 22.9257 203.507 22.7164 204.559 22.7164C205.654 22.7164 206.678 22.9402 207.629 23.3876C208.594 23.8206 209.43 24.4124 210.136 25.163C210.857 25.9136 211.419 26.794 211.822 27.8044C212.24 28.8004 212.449 29.8613 212.449 30.9871ZM218.329 18.4729C218.329 17.8955 218.055 17.6068 217.507 17.6068H214.049C213.76 17.6068 213.559 17.679 213.443 17.8233C213.328 17.9677 213.249 18.1842 213.206 18.4729L212.838 21.071C211.714 19.7863 210.46 18.8481 209.077 18.2563C207.694 17.6501 206.101 17.347 204.3 17.347C202.455 17.347 200.719 17.7079 199.09 18.4296C197.462 19.1513 196.043 20.1328 194.832 21.3741C193.622 22.601 192.663 24.0444 191.957 25.7043C191.251 27.3642 190.898 29.1323 190.898 31.0088C190.898 33.0007 191.266 34.8338 192 36.5081C192.735 38.168 193.723 39.6042 194.962 40.8166C196.201 42.0147 197.628 42.9529 199.242 43.6313C200.856 44.2952 202.542 44.6272 204.3 44.6272C205.856 44.6272 207.333 44.3169 208.731 43.6962C210.143 43.0756 211.411 42.2167 212.535 41.1198V42.8518C212.535 43.2271 212.651 43.5375 212.881 43.7828C213.126 44.0282 213.436 44.1509 213.811 44.1509H217.507C218.055 44.1509 218.329 43.8622 218.329 43.2849V18.4729Z" fill="#363636"/>
<path d="M2.16211 11.1913C0.698003 10.3435 0.698003 8.95697 2.16211 8.11076L15.5371 0.361331C16.9997 -0.48488 18.196 0.206062 18.196 1.90314V17.3989C18.196 19.0929 16.9997 19.7869 15.5371 18.9392L2.16211 11.1913Z" fill="#363636"/>
<path d="M16.0355 22.5538C17.498 23.4016 17.498 24.7866 16.0355 25.6343L2.65891 33.3822C1.19636 34.23 0 33.5375 0 31.8419V16.3431C0 14.6475 1.19636 13.9551 2.65891 14.8028L16.0355 22.5538Z" fill="#363636"/>
<path d="M2.16211 40.4096C0.698003 39.5619 0.698003 38.1753 2.16211 37.3291L15.5371 29.5843C16.9997 28.7381 18.196 29.4291 18.196 31.1262V46.6204C18.196 48.3143 16.9997 49.0084 15.5371 48.1606L2.16211 40.4096Z" fill="#363636"/>
<path d="M20.9215 2.04443C20.9219 1.66804 21.0322 1.3 21.2388 0.985779C21.4453 0.671555 21.7391 0.4249 22.0837 0.276272C22.4284 0.127643 22.809 0.0835496 23.1784 0.149436C23.5478 0.215323 23.8898 0.388305 24.1623 0.647021L45.9072 21.2884C46.2725 21.6349 46.5641 22.0521 46.7645 22.5147C46.9648 22.9772 47.0698 23.4757 47.0732 23.9801C47.0765 24.4844 46.9781 24.9843 46.7838 25.4495C46.5895 25.9147 46.3035 26.3356 45.9428 26.687L43.9525 28.6263C42.7363 29.8157 41.2884 30.7402 39.6995 31.342C33.8183 33.5592 25.351 34.3402 21.7898 34.584C21.694 34.5906 21.5979 34.5774 21.5074 34.5452C21.417 34.513 21.334 34.4625 21.2638 34.3968C21.1936 34.3312 21.1375 34.2518 21.0992 34.1635C21.0608 34.0752 21.0409 33.98 21.0407 33.8837L20.9215 2.04443Z" fill="#363636"/>
<path d="M21.279 36.8555C23.9441 36.7608 30.5465 36.4394 34.846 35.6755C34.9965 35.6495 35.1514 35.6725 35.288 35.7413C35.4245 35.81 35.5355 35.9208 35.6047 36.0574C35.674 36.194 35.6977 36.3493 35.6726 36.5005C35.6474 36.6517 35.5747 36.7908 35.465 36.8975L24.1778 47.9013C23.9071 48.1653 23.5648 48.3435 23.1937 48.4134C22.8226 48.4833 22.4392 48.442 22.0914 48.2945C21.7436 48.1471 21.4469 47.9001 21.2382 47.5844C21.0296 47.2686 20.9184 46.8982 20.9184 46.5194V37.2266C20.918 37.1297 20.9555 37.0365 21.023 36.967C21.0905 36.8976 21.1824 36.8576 21.279 36.8555Z" fill="#363636"/>
<path d="M224.4 38.5267C224.4 37.5814 225.165 36.815 226.109 36.815H230.015C230.959 36.815 231.724 37.5814 231.724 38.5267V42.4392C231.724 43.3845 230.959 44.1509 230.015 44.1509H226.109C225.165 44.1509 224.4 43.3845 224.4 42.4392V38.5267Z" fill="#363636"/>
<path d="M13.9914 86.3973C13.9914 86.5983 14.0809 86.6989 14.26 86.6989H15.2365C15.4155 86.6989 15.505 86.5983 15.505 86.3973V75.3609C15.505 75.2685 15.4833 75.1979 15.4399 75.149C15.3965 75.0946 15.3287 75.0675 15.2365 75.0675H14.26C14.1732 75.0675 14.1054 75.0946 14.0565 75.149C14.0131 75.1979 13.9914 75.2685 13.9914 75.3609V86.3973Z" fill="#363636"/>
<path d="M19.5251 80.8872C19.5251 80.4253 19.6037 80.0205 19.7611 79.6727C19.9238 79.325 20.13 79.0343 20.3795 78.8006C20.6345 78.5669 20.9166 78.3903 21.2259 78.2708C21.5405 78.1512 21.8498 78.0915 22.1536 78.0915C22.5821 78.0915 22.9592 78.173 23.2847 78.336C23.6102 78.4936 23.8815 78.7028 24.0985 78.9636C24.3209 79.2244 24.4864 79.526 24.5949 79.8684C24.7088 80.2053 24.7658 80.553 24.7658 80.9117V86.4054C24.7658 86.601 24.8634 86.6989 25.0587 86.6989H25.9946C26.1736 86.6989 26.2631 86.601 26.2631 86.4054V80.822C26.2631 80.17 26.1627 79.5858 25.962 79.0696C25.7613 78.5479 25.4873 78.105 25.1401 77.741C24.7929 77.3715 24.3887 77.0889 23.9276 76.8933C23.4664 76.6976 22.9755 76.5998 22.4547 76.5998C21.8579 76.5998 21.3127 76.7248 20.819 76.9748C20.3307 77.2193 19.8994 77.5888 19.5251 78.0833V77.0481C19.5251 76.9558 19.5088 76.877 19.4763 76.8118C19.4437 76.7411 19.3813 76.7058 19.2891 76.7058H18.2963C18.1118 76.7058 18.0196 76.809 18.0196 77.0155V86.3973C18.0196 86.5983 18.1118 86.6989 18.2963 86.6989H19.1752C19.2674 86.6989 19.3488 86.6744 19.4193 86.6255C19.4898 86.5712 19.5251 86.4951 19.5251 86.3973V80.8872Z" fill="#363636"/>
<path d="M27.5478 84.7589C27.6835 85.1121 27.8734 85.4192 28.1175 85.68C28.367 85.9408 28.6464 86.1582 28.9557 86.3321C29.2649 86.5005 29.5931 86.6255 29.9403 86.707C30.2875 86.794 30.6239 86.8374 30.9494 86.8374C31.4702 86.8374 31.9503 86.7695 32.3898 86.6337C32.8346 86.4978 33.2171 86.3049 33.5372 86.0549C33.8573 85.7995 34.1068 85.4925 34.2859 85.1339C34.4649 84.7698 34.5544 84.3595 34.5544 83.9031C34.5544 83.4901 34.473 83.1233 34.3103 82.8027C34.153 82.4767 33.9278 82.1914 33.6349 81.9469C33.3419 81.6969 32.9893 81.485 32.577 81.3111C32.1701 81.1318 31.7198 80.985 31.2261 80.8709C31.0145 80.822 30.7948 80.7541 30.5669 80.6672C30.3391 80.5748 30.1275 80.4661 29.9322 80.3411C29.7423 80.2161 29.585 80.0776 29.4602 79.9254C29.3354 79.7678 29.273 79.5967 29.273 79.4119C29.273 79.1674 29.3192 78.9582 29.4114 78.7843C29.5036 78.6104 29.6284 78.4691 29.7857 78.3604C29.943 78.2463 30.1221 78.1621 30.3228 78.1078C30.529 78.0534 30.746 78.0263 30.9738 78.0263C31.2288 78.0263 31.454 78.0589 31.6493 78.1241C31.8446 78.1838 32.0209 78.2653 32.1782 78.3686C32.3355 78.4664 32.4766 78.5805 32.6014 78.7109C32.7261 78.8413 32.8482 78.9772 32.9676 79.1185C33.0164 79.1783 33.0625 79.2272 33.1059 79.2652C33.1493 79.3032 33.1981 79.3223 33.2524 79.3223C33.3066 79.3223 33.369 79.2951 33.4396 79.2407L34.0499 78.7761C34.1475 78.7055 34.1964 78.6321 34.1964 78.5561C34.1964 78.4746 34.1611 78.3849 34.0906 78.2871C33.9061 78.0263 33.7081 77.7926 33.4965 77.5861C33.2904 77.3742 33.0598 77.1949 32.8048 77.0481C32.5553 76.9014 32.2759 76.79 31.9666 76.7139C31.6574 76.6324 31.3102 76.5917 30.925 76.5917C30.4367 76.5917 29.9973 76.6596 29.6067 76.7955C29.2215 76.9313 28.8933 77.1215 28.622 77.366C28.3508 77.6106 28.1419 77.904 27.9954 78.2463C27.8544 78.5887 27.7838 78.969 27.7838 79.3875C27.7838 79.7678 27.8517 80.1102 27.9873 80.4145C28.1229 80.7188 28.3182 80.9905 28.5732 81.2296C28.8336 81.4687 29.1483 81.6779 29.5172 81.8572C29.8861 82.0365 30.3038 82.1887 30.7704 82.3137C31.0362 82.3843 31.302 82.4549 31.5679 82.5256C31.8391 82.5962 32.0806 82.6886 32.2921 82.8027C32.5091 82.9114 32.6855 83.0527 32.8211 83.2266C32.9567 83.4004 33.0245 83.626 33.0245 83.9031C33.0245 84.1639 32.9621 84.3894 32.8374 84.5796C32.7126 84.7698 32.5498 84.9274 32.3491 85.0524C32.1538 85.1719 31.9314 85.2616 31.6818 85.3214C31.4377 85.3757 31.1935 85.4029 30.9494 85.4029C30.8029 85.4029 30.6293 85.3784 30.4286 85.3295C30.2279 85.2806 30.0271 85.2045 29.8264 85.1013C29.6311 84.998 29.4466 84.8703 29.273 84.7182C29.1049 84.566 28.9801 84.3894 28.8987 84.1884C28.8662 84.1123 28.8228 84.0444 28.7685 83.9846C28.7197 83.9248 28.6546 83.8949 28.5732 83.8949C28.5244 83.8949 28.4755 83.9058 28.4267 83.9275L27.6862 84.2699C27.5777 84.3188 27.5126 84.3731 27.4909 84.4329C27.4746 84.4927 27.4936 84.6014 27.5478 84.7589Z" fill="#363636"/>
<path d="M38.2947 74.9696C38.2947 74.8827 38.2757 74.8093 38.2378 74.7496C38.2052 74.6898 38.151 74.6599 38.075 74.6599C38.0479 74.6599 38.0262 74.6626 38.0099 74.6681L37.0741 74.8148C36.971 74.8419 36.8977 74.88 36.8543 74.9289C36.8164 74.9724 36.7974 75.0403 36.7974 75.1327V76.7058H35.8046C35.7286 76.7058 35.6608 76.7302 35.6011 76.7792C35.5415 76.8281 35.5116 76.9041 35.5116 77.0074V77.8062C35.5116 77.904 35.5415 77.9746 35.6011 78.0181C35.6608 78.0616 35.7286 78.0833 35.8046 78.0833H36.7974V84.3595C36.7974 84.7345 36.8543 85.0741 36.9683 85.3784C37.0876 85.6773 37.2612 85.9327 37.4891 86.1446C37.7169 86.3565 37.999 86.5223 38.3354 86.6418C38.6772 86.7559 39.0732 86.813 39.5235 86.813C39.6971 86.813 39.8002 86.7885 39.8327 86.7396C39.8707 86.6961 39.8897 86.6445 39.8897 86.5847V85.6881C39.8897 85.661 39.887 85.6338 39.8816 85.6066C39.8816 85.574 39.8707 85.5469 39.849 85.5251C39.8273 85.498 39.7921 85.4762 39.7432 85.4599C39.6944 85.4436 39.6239 85.4355 39.5316 85.4355L39.255 85.4273C39.0597 85.4219 38.8996 85.3784 38.7748 85.2969C38.6555 85.2154 38.5578 85.1121 38.4819 84.9872C38.4114 84.8622 38.3625 84.7236 38.3354 84.5715C38.3083 84.4139 38.2947 84.2617 38.2947 84.115V78.0833H39.4096C39.4964 78.0833 39.5669 78.0589 39.6212 78.01C39.6808 77.9556 39.7107 77.8877 39.7107 77.8062V76.9911C39.7107 76.8987 39.6836 76.8281 39.6293 76.7792C39.5805 76.7302 39.5127 76.7058 39.4259 76.7058H38.2947V74.9696Z" fill="#363636"/>
<path d="M49.5563 81.7594C49.5563 82.2702 49.4532 82.7511 49.2471 83.2021C49.0463 83.6477 48.7778 84.0389 48.4414 84.3758C48.1105 84.7073 47.728 84.9681 47.294 85.1583C46.86 85.3485 46.4151 85.4436 45.9594 85.4436C45.5037 85.4436 45.0643 85.3512 44.6411 85.1665C44.218 84.9763 43.8436 84.7155 43.5181 84.384C43.1926 84.0525 42.9322 83.664 42.7369 83.2184C42.5416 82.7674 42.4439 82.281 42.4439 81.7594C42.4439 81.2269 42.5362 80.7324 42.7206 80.2759C42.9051 79.8195 43.1546 79.4255 43.4693 79.094C43.7894 78.7571 44.1637 78.4936 44.5923 78.3034C45.0209 78.1132 45.4766 78.0181 45.9594 78.0181C46.4477 78.0181 46.9088 78.1159 47.3428 78.3115C47.7823 78.5072 48.1647 78.7734 48.4903 79.1103C48.8158 79.4472 49.0735 79.8439 49.2633 80.3004C49.4586 80.7514 49.5563 81.2377 49.5563 81.7594ZM50.9885 76.9992C50.9885 76.7982 50.899 76.6976 50.72 76.6976H49.7353C49.5563 76.6976 49.4668 76.7982 49.4668 76.9992V78.0589C49.2769 77.8632 49.0599 77.6785 48.8158 77.5046C48.5771 77.3307 48.3112 77.1786 48.0183 77.0481C47.7253 76.9123 47.4025 76.8063 47.0499 76.7303C46.7027 76.6487 46.3229 76.608 45.9106 76.608C45.227 76.608 44.5787 76.7438 43.9657 77.0155C43.3526 77.2872 42.8128 77.6595 42.3463 78.1322C41.8851 78.5995 41.5162 79.1456 41.2396 79.7706C40.9683 80.3955 40.8327 81.0611 40.8327 81.7675C40.8327 82.4957 40.9764 83.1722 41.264 83.7971C41.5569 84.4166 41.9421 84.9546 42.4195 85.411C42.8969 85.862 43.4394 86.218 44.0471 86.4788C44.6547 86.7342 45.2759 86.8619 45.9106 86.8619C46.2632 86.8619 46.6159 86.8238 46.9685 86.7478C47.3211 86.6717 47.6521 86.5685 47.9613 86.438C48.276 86.3022 48.5635 86.1446 48.8239 85.9653C49.0843 85.7805 49.2986 85.5822 49.4668 85.3703V86.3158C49.4668 86.4136 49.4858 86.5032 49.5237 86.5847C49.5671 86.6608 49.6539 86.6989 49.7842 86.6989H50.72C50.899 86.6989 50.9885 86.5983 50.9885 86.3973V76.9992Z" fill="#363636"/>
<path d="M61.9867 81.7023C61.9867 82.2077 61.8944 82.6859 61.71 83.1369C61.5255 83.5825 61.2732 83.9764 60.9532 84.3188C60.6385 84.6557 60.2696 84.922 59.8464 85.1176C59.4233 85.3132 58.9703 85.411 58.4874 85.411C58.0372 85.411 57.595 85.3268 57.161 85.1583C56.7324 84.9845 56.3472 84.7399 56.0054 84.4248C55.6691 84.1041 55.3978 83.7156 55.1917 83.2592C54.9855 82.8027 54.8824 82.2865 54.8824 81.7105C54.8824 81.2051 54.9719 80.7296 55.151 80.2841C55.33 79.8385 55.5769 79.45 55.8915 79.1185C56.2062 78.787 56.5751 78.5262 56.9982 78.336C57.4268 78.1404 57.888 78.0426 58.3816 78.0426C58.897 78.0426 59.3745 78.1376 59.8139 78.3278C60.2533 78.518 60.6331 78.7789 60.9532 79.1103C61.2732 79.4418 61.5255 79.8303 61.71 80.2759C61.8944 80.7215 61.9867 81.197 61.9867 81.7023ZM63.4596 77.0074C63.4596 76.915 63.4406 76.8416 63.4026 76.7873C63.3701 76.733 63.3212 76.7058 63.2561 76.7058H62.2552C62.0599 76.7058 61.9541 76.8199 61.9378 77.0481V78.067C61.493 77.5888 60.964 77.2247 60.351 76.9748C59.7379 76.7248 59.0164 76.5998 58.1863 76.5998C57.5136 76.5998 56.8816 76.7357 56.2903 77.0074C55.7043 77.2791 55.1917 77.6486 54.7522 78.1159C54.3128 78.5778 53.9656 79.1185 53.7106 79.7379C53.4556 80.352 53.3281 81.0041 53.3281 81.6942C53.3281 82.4441 53.4665 83.1369 53.7432 83.7727C54.0198 84.403 54.3887 84.9491 54.8499 85.411C55.3164 85.8675 55.8508 86.2261 56.453 86.4869C57.0606 86.7423 57.6927 86.87 58.3491 86.87C59.1574 86.87 59.8546 86.7369 60.4405 86.4706C61.0318 86.1989 61.5309 85.8213 61.9378 85.3377V85.9245C61.9378 86.2886 61.8402 86.6337 61.6449 86.9597C61.4496 87.2857 61.1919 87.571 60.8718 87.8155C60.5571 88.0601 60.1991 88.253 59.7976 88.3943C59.3962 88.5355 58.9893 88.6062 58.577 88.6062C58.2677 88.6062 57.9938 88.5926 57.755 88.5654C57.5163 88.5383 57.2966 88.4948 57.0959 88.435C56.8952 88.3807 56.7026 88.31 56.5181 88.2231C56.3391 88.1361 56.1492 88.0329 55.9485 87.9134C55.8671 87.8645 55.7911 87.84 55.7206 87.84C55.6609 87.84 55.6121 87.8509 55.5741 87.8726C55.5362 87.8998 55.5036 87.9324 55.4765 87.9704L55.0777 88.6306C55.0506 88.6741 55.0289 88.7312 55.0126 88.8018C54.9964 88.8779 55.0452 88.9567 55.1591 89.0382C55.387 89.1958 55.6202 89.3343 55.859 89.4539C56.0977 89.5734 56.3499 89.674 56.6158 89.7555C56.8816 89.837 57.1664 89.8968 57.4702 89.9348C57.774 89.9783 58.105 90 58.463 90C59.0815 90 59.6891 89.9022 60.2859 89.7066C60.8826 89.5164 61.417 89.2229 61.889 88.8263C62.361 88.4296 62.7408 87.9297 63.0283 87.3265C63.3158 86.7233 63.4596 86.0115 63.4596 85.1909V77.0074Z" fill="#363636"/>
<path d="M65.6079 86.3973C65.6079 86.5983 65.7002 86.6989 65.8846 86.6989H66.8367C67.0212 86.6989 67.1134 86.5983 67.1134 86.3973V80.4389C67.1134 79.9879 67.1704 79.6103 67.2843 79.306C67.4037 79.0016 67.5583 78.7571 67.7482 78.5724C67.9435 78.3876 68.1659 78.2572 68.4155 78.1811C68.6704 78.0996 68.9336 78.0589 69.2048 78.0589C69.4327 78.0589 69.6388 78.0806 69.8233 78.1241C70.0132 78.1621 70.1841 78.2137 70.336 78.2789C70.4933 78.3441 70.6398 78.4202 70.7754 78.5072C70.911 78.5887 71.0439 78.6702 71.1741 78.7517C71.2501 78.806 71.3233 78.8332 71.3939 78.8332C71.4752 78.8332 71.5403 78.7952 71.5892 78.7191L72.0286 78.01C72.0666 77.9502 72.0829 77.8877 72.0774 77.8225C72.0774 77.7518 72.0232 77.6703 71.9147 77.578C71.817 77.491 71.6841 77.3905 71.5159 77.2764C71.3532 77.1623 71.1606 77.0563 70.9381 76.9585C70.7211 76.8552 70.4797 76.7683 70.2139 76.6976C69.9481 76.627 69.6687 76.5917 69.3757 76.5917C69.1261 76.5917 68.8956 76.6134 68.684 76.6569C68.4724 76.6949 68.2744 76.7601 68.0899 76.8525C67.9109 76.9449 67.7427 77.0672 67.5854 77.2193C67.4281 77.366 67.2762 77.5508 67.1297 77.7736V77.0155C67.1297 76.8851 67.1053 76.8009 67.0565 76.7629C67.0076 76.7194 66.9371 76.6976 66.8449 76.6976H65.8846C65.7002 76.6976 65.6079 76.7955 65.6079 76.9911V86.3973Z" fill="#363636"/>
<path d="M81.4307 81.7594C81.4307 82.2702 81.3276 82.7511 81.1215 83.2021C80.9207 83.6477 80.6522 84.0389 80.3158 84.3758C79.9849 84.7073 79.6024 84.9681 79.1684 85.1583C78.7344 85.3485 78.2896 85.4436 77.8338 85.4436C77.3781 85.4436 76.9387 85.3512 76.5155 85.1665C76.0924 84.9763 75.718 84.7155 75.3925 84.384C75.067 84.0525 74.8066 83.664 74.6113 83.2184C74.416 82.7674 74.3183 82.281 74.3183 81.7594C74.3183 81.2269 74.4106 80.7324 74.595 80.2759C74.7795 79.8195 75.029 79.4255 75.3437 79.094C75.6638 78.7571 76.0381 78.4936 76.4667 78.3034C76.8953 78.1132 77.351 78.0181 77.8338 78.0181C78.3221 78.0181 78.7832 78.1159 79.2172 78.3115C79.6567 78.5072 80.0392 78.7734 80.3647 79.1103C80.6902 79.4472 80.9479 79.8439 81.1378 80.3004C81.3331 80.7514 81.4307 81.2377 81.4307 81.7594ZM82.8629 76.9992C82.8629 76.7982 82.7734 76.6976 82.5944 76.6976H81.6097C81.4307 76.6976 81.3412 76.7982 81.3412 76.9992V78.0589C81.1513 77.8632 80.9343 77.6785 80.6902 77.5046C80.4515 77.3307 80.1856 77.1786 79.8927 77.0481C79.5997 76.9123 79.2769 76.8063 78.9243 76.7303C78.5771 76.6487 78.1973 76.608 77.785 76.608C77.1014 76.608 76.4531 76.7438 75.8401 77.0155C75.2271 77.2872 74.6873 77.6595 74.2207 78.1322C73.7596 78.5995 73.3906 79.1456 73.114 79.7706C72.8427 80.3955 72.7071 81.0611 72.7071 81.7675C72.7071 82.4957 72.8508 83.1722 73.1384 83.7971C73.4313 84.4166 73.8165 84.9546 74.2939 85.411C74.7713 85.862 75.3139 86.218 75.9215 86.4788C76.5291 86.7342 77.1503 86.8619 77.785 86.8619C78.1376 86.8619 78.4903 86.8238 78.8429 86.7478C79.1956 86.6717 79.5265 86.5685 79.8357 86.438C80.1504 86.3022 80.4379 86.1446 80.6983 85.9653C80.9587 85.7805 81.173 85.5822 81.3412 85.3703V86.3158C81.3412 86.4136 81.3602 86.5032 81.3982 86.5847C81.4416 86.6608 81.5284 86.6989 81.6586 86.6989H82.5944C82.7734 86.6989 82.8629 86.5983 82.8629 86.3973V76.9992Z" fill="#363636"/>
<path d="M86.708 80.5775C86.708 80.1156 86.7975 79.7271 86.9766 79.4119C87.1556 79.0967 87.3753 78.8414 87.6357 78.6457C87.9015 78.4501 88.1837 78.3088 88.482 78.2219C88.7804 78.1349 89.0463 78.0915 89.2795 78.0915C89.6973 78.0915 90.0608 78.1757 90.37 78.3441C90.6846 78.5072 90.9451 78.7164 91.1512 78.9718C91.3574 79.2217 91.512 79.4989 91.6151 79.8032C91.7181 80.102 91.7697 80.3873 91.7697 80.659V86.4054C91.7697 86.601 91.8646 86.6989 92.0545 86.6989H92.9822C93.1612 86.6989 93.2507 86.601 93.2507 86.4054V80.6672C93.2507 80.3683 93.305 80.0667 93.4135 79.7624C93.5274 79.4527 93.6902 79.1755 93.9018 78.931C94.1133 78.681 94.371 78.4773 94.6748 78.3197C94.9841 78.1621 95.334 78.0833 95.7246 78.0833C96.1803 78.0833 96.5709 78.1675 96.8964 78.336C97.2274 78.499 97.4986 78.7082 97.7102 78.9636C97.9218 79.219 98.0791 79.5016 98.1822 79.8113C98.2853 80.1156 98.3368 80.409 98.3368 80.6916V86.3973C98.3368 86.5983 98.4318 86.6989 98.6216 86.6989H99.5412C99.7202 86.6989 99.8097 86.5983 99.8097 86.3973V80.7242C99.8097 80.1482 99.7202 79.6103 99.5412 79.1103C99.3676 78.6104 99.1126 78.1757 98.7762 77.8062C98.4399 77.4312 98.0249 77.1378 97.5312 76.9259C97.0429 76.7139 96.4841 76.608 95.8548 76.608C95.1116 76.608 94.4605 76.7629 93.9018 77.0726C93.3484 77.3769 92.9225 77.817 92.6241 78.393C92.4939 78.1322 92.323 77.8931 92.1115 77.6758C91.8999 77.453 91.6557 77.2628 91.3791 77.1052C91.1078 76.9476 90.8067 76.8253 90.4758 76.7384C90.1503 76.6515 89.8058 76.608 89.4423 76.608C88.916 76.608 88.4169 76.7194 87.9449 76.9422C87.473 77.165 87.0661 77.5127 86.7243 77.9855V77.04C86.7243 76.9476 86.689 76.8688 86.6185 76.8036C86.548 76.733 86.4666 76.6976 86.3744 76.6976H85.4792C85.2948 76.6976 85.2025 76.8009 85.2025 77.0074V86.3973C85.2025 86.5983 85.2948 86.6989 85.4792 86.6989H86.4151C86.6104 86.6989 86.708 86.5983 86.708 86.3973V80.5775Z" fill="#363636"/>
<path d="M107.319 78.8576H106.44C106.364 78.8576 106.302 78.8359 106.253 78.7924C106.204 78.749 106.18 78.6865 106.18 78.605V77.741C106.18 77.6595 106.204 77.5997 106.253 77.5616C106.302 77.5236 106.364 77.5046 106.44 77.5046H107.319V75.907C107.319 75.5103 107.368 75.1408 107.465 74.7985C107.563 74.4561 107.715 74.16 107.921 73.91C108.133 73.6546 108.401 73.4536 108.727 73.3069C109.052 73.1601 109.443 73.0868 109.898 73.0868C110.061 73.0868 110.162 73.1221 110.2 73.1927C110.238 73.2634 110.257 73.3395 110.257 73.421V74.2687C110.257 74.3447 110.232 74.4127 110.183 74.4724C110.134 74.5322 110.037 74.5621 109.89 74.5621C109.646 74.5621 109.451 74.6137 109.304 74.717C109.158 74.8148 109.047 74.9398 108.971 75.0919C108.9 75.2386 108.854 75.4016 108.832 75.581C108.811 75.7549 108.8 75.9206 108.8 76.0782C108.8 76.1651 108.8 76.2439 108.8 76.3146C108.805 76.3852 108.808 76.4477 108.808 76.502V77.5046H113.341C113.514 77.5046 113.601 77.5834 113.601 77.741V86.4054C113.601 86.601 113.509 86.6989 113.324 86.6989H112.364C112.18 86.6989 112.088 86.601 112.088 86.4054V78.8576H108.808V86.4054C108.808 86.601 108.719 86.6989 108.539 86.6989H107.587C107.408 86.6989 107.319 86.601 107.319 86.4054V78.8576ZM112.088 74.1382C112.088 74.0459 112.112 73.9671 112.161 73.9019C112.21 73.8367 112.294 73.8041 112.413 73.8041H113.3C113.501 73.8041 113.601 73.9209 113.601 74.1546V75.0186C113.601 75.1435 113.574 75.2278 113.52 75.2712C113.465 75.3093 113.392 75.3283 113.3 75.3283H112.421C112.313 75.3283 112.229 75.3066 112.169 75.2631C112.115 75.2142 112.088 75.1354 112.088 75.0267V74.1382Z" fill="#363636"/>
<path d="M115.886 86.3891C115.886 86.5956 115.981 86.6989 116.171 86.6989H117.115C117.207 86.6989 117.275 86.6717 117.318 86.6174C117.367 86.5576 117.391 86.4815 117.391 86.3891V74.1138C117.391 74.0214 117.367 73.9481 117.318 73.8937C117.275 73.8339 117.207 73.8041 117.115 73.8041H116.171C116.078 73.8041 116.008 73.8339 115.959 73.8937C115.91 73.9481 115.886 74.0214 115.886 74.1138V86.3891Z" fill="#363636"/>
<path d="M121.818 74.9696C121.818 74.8827 121.799 74.8093 121.761 74.7496C121.729 74.6898 121.674 74.6599 121.598 74.6599C121.571 74.6599 121.55 74.6626 121.533 74.6681L120.598 74.8148C120.494 74.8419 120.421 74.88 120.378 74.9289C120.34 74.9724 120.321 75.0403 120.321 75.1327V76.7058H119.328C119.252 76.7058 119.184 76.7302 119.125 76.7792C119.065 76.8281 119.035 76.9041 119.035 77.0074V77.8062C119.035 77.904 119.065 77.9746 119.125 78.0181C119.184 78.0616 119.252 78.0833 119.328 78.0833H120.321V84.3595C120.321 84.7345 120.378 85.0741 120.492 85.3784C120.611 85.6773 120.785 85.9327 121.013 86.1446C121.24 86.3565 121.523 86.5223 121.859 86.6418C122.201 86.7559 122.597 86.813 123.047 86.813C123.221 86.813 123.324 86.7885 123.356 86.7396C123.394 86.6961 123.413 86.6445 123.413 86.5847V85.6881C123.413 85.661 123.41 85.6338 123.405 85.6066C123.405 85.574 123.394 85.5469 123.372 85.5251C123.351 85.498 123.316 85.4762 123.267 85.4599C123.218 85.4436 123.147 85.4355 123.055 85.4355L122.778 85.4273C122.583 85.4219 122.423 85.3784 122.298 85.2969C122.179 85.2154 122.081 85.1121 122.005 84.9872C121.935 84.8622 121.886 84.7236 121.859 84.5715C121.832 84.4139 121.818 84.2617 121.818 84.115V78.0833H122.933C123.02 78.0833 123.09 78.0589 123.145 78.01C123.204 77.9556 123.234 77.8877 123.234 77.8062V76.9911C123.234 76.8987 123.207 76.8281 123.153 76.7792C123.104 76.7302 123.036 76.7058 122.949 76.7058H121.818V74.9696Z" fill="#363636"/>
<path d="M129.532 78.0996C130.004 78.0996 130.438 78.1703 130.834 78.3115C131.235 78.4528 131.591 78.6512 131.9 78.9066C132.209 79.1565 132.467 79.4581 132.673 79.8113C132.879 80.1645 133.026 80.5503 133.112 80.9687H126.016C126.108 80.5503 126.26 80.1645 126.472 79.8113C126.684 79.4581 126.941 79.1565 127.245 78.9066C127.554 78.6512 127.901 78.4528 128.287 78.3115C128.677 78.1703 129.092 78.0996 129.532 78.0996ZM134.105 82.5011C134.181 82.5011 134.252 82.4957 134.317 82.4848C134.382 82.474 134.436 82.4495 134.479 82.4115C134.528 82.368 134.566 82.3109 134.593 82.2403C134.621 82.1642 134.634 82.0664 134.634 81.9469C134.634 81.2404 134.523 80.5666 134.3 79.9254C134.083 79.2788 133.755 78.7109 133.316 78.2219C132.882 77.7328 132.337 77.3443 131.68 77.0563C131.029 76.7629 130.272 76.6161 129.41 76.6161C128.694 76.6161 128.026 76.752 127.408 77.0237C126.789 77.2954 126.252 77.6676 125.797 78.1404C125.341 78.6077 124.983 79.1538 124.722 79.7787C124.467 80.4036 124.34 81.0693 124.34 81.7757C124.34 82.4767 124.475 83.1369 124.747 83.7564C125.023 84.3758 125.395 84.9165 125.862 85.3784C126.328 85.8403 126.871 86.2071 127.489 86.4788C128.108 86.7451 128.761 86.8782 129.45 86.8782C130.172 86.8782 130.809 86.7614 131.363 86.5277C131.916 86.2886 132.448 85.9463 132.958 85.5007C133.088 85.3811 133.099 85.2453 132.99 85.0931L132.421 84.3351C132.383 84.2808 132.328 84.2536 132.258 84.2536C132.22 84.2536 132.182 84.2617 132.144 84.278C132.111 84.2943 132.082 84.3134 132.054 84.3351C131.913 84.4492 131.764 84.5715 131.607 84.7019C131.455 84.8269 131.279 84.9437 131.078 85.0524C130.877 85.1556 130.641 85.2426 130.37 85.3132C130.104 85.3838 129.784 85.4192 129.41 85.4192C129.035 85.4192 128.669 85.3512 128.311 85.2154C127.953 85.0741 127.619 84.8758 127.31 84.6204C127.006 84.365 126.74 84.058 126.513 83.6993C126.285 83.3407 126.114 82.9413 126 82.5011H134.105Z" fill="#363636"/>
<path d="M136.604 86.3973C136.604 86.5983 136.697 86.6989 136.881 86.6989H137.833C138.018 86.6989 138.11 86.5983 138.11 86.3973V80.4389C138.11 79.9879 138.167 79.6103 138.281 79.306C138.4 79.0016 138.555 78.7571 138.745 78.5724C138.94 78.3876 139.162 78.2572 139.412 78.1811C139.667 78.0996 139.93 78.0589 140.201 78.0589C140.429 78.0589 140.635 78.0806 140.82 78.1241C141.01 78.1621 141.181 78.2137 141.332 78.2789C141.49 78.3441 141.636 78.4202 141.772 78.5072C141.908 78.5887 142.04 78.6702 142.171 78.7517C142.247 78.806 142.32 78.8332 142.39 78.8332C142.472 78.8332 142.537 78.7952 142.586 78.7191L143.025 78.01C143.063 77.9502 143.079 77.8877 143.074 77.8225C143.074 77.7518 143.02 77.6703 142.911 77.578C142.813 77.491 142.681 77.3905 142.512 77.2764C142.35 77.1623 142.157 77.0563 141.935 76.9585C141.718 76.8552 141.476 76.7683 141.21 76.6976C140.945 76.627 140.665 76.5917 140.372 76.5917C140.123 76.5917 139.892 76.6134 139.68 76.6569C139.469 76.6949 139.271 76.7601 139.086 76.8525C138.907 76.9449 138.739 77.0672 138.582 77.2193C138.425 77.366 138.273 77.5508 138.126 77.7736V77.0155C138.126 76.8851 138.102 76.8009 138.053 76.7629C138.004 76.7194 137.934 76.6976 137.841 76.6976H136.881C136.697 76.6976 136.604 76.7955 136.604 76.9911V86.3973Z" fill="#363636"/>
<path d="M157.89 81.7594C157.89 82.2702 157.787 82.7511 157.58 83.2021C157.38 83.6477 157.111 84.0389 156.775 84.3758C156.444 84.7073 156.061 84.9681 155.627 85.1583C155.193 85.3485 154.748 85.4436 154.293 85.4436C153.837 85.4436 153.398 85.3512 152.974 85.1665C152.551 84.9763 152.177 84.7155 151.851 84.384C151.526 84.0525 151.266 83.664 151.07 83.2184C150.875 82.7674 150.777 82.281 150.777 81.7594C150.777 81.2269 150.869 80.7324 151.054 80.2759C151.238 79.8195 151.488 79.4255 151.803 79.094C152.123 78.7571 152.497 78.4936 152.926 78.3034C153.354 78.1132 153.81 78.0181 154.293 78.0181C154.781 78.0181 155.242 78.1159 155.676 78.3115C156.116 78.5072 156.498 78.7734 156.824 79.1103C157.149 79.4472 157.407 79.8439 157.597 80.3004C157.792 80.7514 157.89 81.2377 157.89 81.7594ZM159.322 76.9992C159.322 76.7982 159.232 76.6976 159.053 76.6976H158.069C157.89 76.6976 157.8 76.7982 157.8 76.9992V78.0589C157.61 77.8632 157.393 77.6785 157.149 77.5046C156.91 77.3307 156.645 77.1786 156.352 77.0481C156.059 76.9123 155.736 76.8063 155.383 76.7303C155.036 76.6487 154.656 76.608 154.244 76.608C153.56 76.608 152.912 76.7438 152.299 77.0155C151.686 77.2872 151.146 77.6595 150.68 78.1322C150.218 78.5995 149.85 79.1456 149.573 79.7706C149.302 80.3955 149.166 81.0611 149.166 81.7675C149.166 82.4957 149.31 83.1722 149.597 83.7971C149.89 84.4166 150.275 84.9546 150.753 85.411C151.23 85.862 151.773 86.218 152.38 86.4788C152.988 86.7342 153.609 86.8619 154.244 86.8619C154.597 86.8619 154.949 86.8238 155.302 86.7478C155.654 86.6717 155.985 86.5685 156.295 86.438C156.609 86.3022 156.897 86.1446 157.157 85.9653C157.418 85.7805 157.632 85.5822 157.8 85.3703V86.3158C157.8 86.4136 157.819 86.5032 157.857 86.5847C157.9 86.6608 157.987 86.6989 158.117 86.6989H159.053C159.232 86.6989 159.322 86.5983 159.322 86.3973V76.9992Z" fill="#363636"/>
<path d="M170.32 81.7023C170.32 82.2077 170.228 82.6859 170.043 83.1369C169.859 83.5825 169.607 83.9764 169.287 84.3188C168.972 84.6557 168.603 84.922 168.18 85.1176C167.757 85.3132 167.304 85.411 166.821 85.411C166.37 85.411 165.928 85.3268 165.494 85.1583C165.066 84.9845 164.681 84.7399 164.339 84.4248C164.002 84.1041 163.731 83.7156 163.525 83.2592C163.319 82.8027 163.216 82.2865 163.216 81.7105C163.216 81.2051 163.305 80.7296 163.484 80.2841C163.663 79.8385 163.91 79.45 164.225 79.1185C164.54 78.787 164.908 78.5262 165.332 78.336C165.76 78.1404 166.221 78.0426 166.715 78.0426C167.23 78.0426 167.708 78.1376 168.147 78.3278C168.587 78.518 168.966 78.7789 169.287 79.1103C169.607 79.4418 169.859 79.8303 170.043 80.2759C170.228 80.7215 170.32 81.197 170.32 81.7023ZM171.793 77.0074C171.793 76.915 171.774 76.8416 171.736 76.7873C171.703 76.733 171.655 76.7058 171.589 76.7058H170.589C170.393 76.7058 170.287 76.8199 170.271 77.0481V78.067C169.826 77.5888 169.297 77.2247 168.684 76.9748C168.071 76.7248 167.35 76.5998 166.52 76.5998C165.847 76.5998 165.215 76.7357 164.624 77.0074C164.038 77.2791 163.525 77.6486 163.086 78.1159C162.646 78.5778 162.299 79.1185 162.044 79.7379C161.789 80.352 161.661 81.0041 161.661 81.6942C161.661 82.4441 161.8 83.1369 162.076 83.7727C162.353 84.403 162.722 84.9491 163.183 85.411C163.65 85.8675 164.184 86.2261 164.786 86.4869C165.394 86.7423 166.026 86.87 166.682 86.87C167.491 86.87 168.188 86.7369 168.774 86.4706C169.365 86.1989 169.864 85.8213 170.271 85.3377V85.9245C170.271 86.2886 170.174 86.6337 169.978 86.9597C169.783 87.2857 169.525 87.571 169.205 87.8155C168.89 88.0601 168.532 88.253 168.131 88.3943C167.729 88.5355 167.323 88.6062 166.91 88.6062C166.601 88.6062 166.327 88.5926 166.088 88.5654C165.85 88.5383 165.63 88.4948 165.429 88.435C165.228 88.3807 165.036 88.31 164.851 88.2231C164.672 88.1361 164.483 88.0329 164.282 87.9134C164.2 87.8645 164.124 87.84 164.054 87.84C163.994 87.84 163.945 87.8509 163.907 87.8726C163.869 87.8998 163.837 87.9324 163.81 87.9704L163.411 88.6306C163.384 88.6741 163.362 88.7312 163.346 88.8018C163.33 88.8779 163.379 88.9567 163.492 89.0382C163.72 89.1958 163.954 89.3343 164.192 89.4539C164.431 89.5734 164.683 89.674 164.949 89.7555C165.215 89.837 165.5 89.8968 165.804 89.9348C166.107 89.9783 166.438 90 166.796 90C167.415 90 168.022 89.9022 168.619 89.7066C169.216 89.5164 169.75 89.2229 170.222 88.8263C170.694 88.4296 171.074 87.9297 171.362 87.3265C171.649 86.7233 171.793 86.0115 171.793 85.1909V77.0074Z" fill="#363636"/>
<path d="M178.694 78.0996C179.166 78.0996 179.6 78.1703 179.996 78.3115C180.397 78.4528 180.753 78.6512 181.062 78.9066C181.371 79.1565 181.629 79.4581 181.835 79.8113C182.041 80.1645 182.187 80.5503 182.274 80.9687H175.178C175.27 80.5503 175.422 80.1645 175.634 79.8113C175.846 79.4581 176.103 79.1565 176.407 78.9066C176.716 78.6512 177.063 78.4528 177.449 78.3115C177.839 78.1703 178.254 78.0996 178.694 78.0996ZM183.267 82.5011C183.343 82.5011 183.414 82.4957 183.479 82.4848C183.544 82.474 183.598 82.4495 183.641 82.4115C183.69 82.368 183.728 82.3109 183.755 82.2403C183.782 82.1642 183.796 82.0664 183.796 81.9469C183.796 81.2404 183.685 80.5666 183.462 79.9254C183.245 79.2788 182.917 78.7109 182.478 78.2219C182.044 77.7328 181.498 77.3443 180.842 77.0563C180.191 76.7629 179.434 76.6161 178.572 76.6161C177.856 76.6161 177.188 76.752 176.57 77.0237C175.951 77.2954 175.414 77.6676 174.958 78.1404C174.503 78.6077 174.145 79.1538 173.884 79.7787C173.629 80.4036 173.502 81.0693 173.502 81.7757C173.502 82.4767 173.637 83.1369 173.909 83.7564C174.185 84.3758 174.557 84.9165 175.024 85.3784C175.49 85.8403 176.033 86.2071 176.651 86.4788C177.27 86.7451 177.923 86.8782 178.612 86.8782C179.334 86.8782 179.971 86.7614 180.525 86.5277C181.078 86.2886 181.61 85.9463 182.12 85.5007C182.25 85.3811 182.261 85.2453 182.152 85.0931L181.583 84.3351C181.545 84.2808 181.49 84.2536 181.42 84.2536C181.382 84.2536 181.344 84.2617 181.306 84.278C181.273 84.2943 181.244 84.3134 181.216 84.3351C181.075 84.4492 180.926 84.5715 180.769 84.7019C180.617 84.8269 180.441 84.9437 180.24 85.0524C180.039 85.1556 179.803 85.2426 179.532 85.3132C179.266 85.3838 178.946 85.4192 178.572 85.4192C178.197 85.4192 177.831 85.3512 177.473 85.2154C177.115 85.0741 176.781 84.8758 176.472 84.6204C176.168 84.365 175.902 84.058 175.675 83.6993C175.447 83.3407 175.276 82.9413 175.162 82.5011H183.267Z" fill="#363636"/>
<path d="M187.304 80.8872C187.304 80.4253 187.383 80.0205 187.54 79.6727C187.703 79.325 187.909 79.0343 188.159 78.8006C188.414 78.5669 188.696 78.3903 189.005 78.2708C189.32 78.1512 189.629 78.0915 189.933 78.0915C190.361 78.0915 190.739 78.173 191.064 78.336C191.39 78.4936 191.661 78.7028 191.878 78.9636C192.1 79.2244 192.266 79.526 192.374 79.8684C192.488 80.2053 192.545 80.553 192.545 80.9117V86.4054C192.545 86.601 192.643 86.6989 192.838 86.6989H193.774C193.953 86.6989 194.042 86.601 194.042 86.4054V80.822C194.042 80.17 193.942 79.5858 193.741 79.0696C193.541 78.5479 193.267 78.105 192.919 77.741C192.572 77.3715 192.168 77.0889 191.707 76.8933C191.246 76.6976 190.755 76.5998 190.234 76.5998C189.637 76.5998 189.092 76.7248 188.598 76.9748C188.11 77.2193 187.679 77.5888 187.304 78.0833V77.0481C187.304 76.9558 187.288 76.877 187.256 76.8118C187.223 76.7411 187.161 76.7058 187.068 76.7058H186.076C185.891 76.7058 185.799 76.809 185.799 77.0155V86.3973C185.799 86.5983 185.891 86.6989 186.076 86.6989H186.954C187.047 86.6989 187.128 86.6744 187.199 86.6255C187.269 86.5712 187.304 86.4951 187.304 86.3973V80.8872Z" fill="#363636"/>
<path d="M203.001 84.3514C202.849 84.4764 202.689 84.6041 202.521 84.7345C202.353 84.8595 202.168 84.9736 201.968 85.0768C201.772 85.1746 201.555 85.2561 201.317 85.3214C201.083 85.3866 200.823 85.4192 200.535 85.4192C200.025 85.4192 199.551 85.3268 199.111 85.142C198.672 84.9573 198.289 84.7019 197.964 84.3758C197.638 84.0498 197.383 83.664 197.199 83.2184C197.014 82.7674 196.922 82.2756 196.922 81.7431C196.922 81.2214 197.014 80.7378 197.199 80.2922C197.383 79.8412 197.638 79.45 197.964 79.1185C198.289 78.7816 198.674 78.518 199.119 78.3278C199.564 78.1376 200.047 78.0426 200.568 78.0426C200.98 78.0426 201.382 78.1186 201.772 78.2708C202.163 78.4175 202.559 78.662 202.96 79.0044C203.009 79.0478 203.063 79.0696 203.123 79.0696C203.167 79.0696 203.204 79.0614 203.237 79.0451C203.27 79.0234 203.294 79.0016 203.31 78.9799L203.921 78.1811C203.942 78.1485 203.956 78.1023 203.961 78.0426C203.967 77.9773 203.931 77.9094 203.856 77.8388C203.394 77.4475 202.876 77.1432 202.301 76.9259C201.726 76.7085 201.124 76.6026 200.495 76.608C199.822 76.6134 199.176 76.7493 198.558 77.0155C197.939 77.2764 197.397 77.635 196.93 78.0915C196.464 78.5479 196.089 79.0886 195.807 79.7135C195.531 80.333 195.392 81.0068 195.392 81.7349C195.392 82.4577 195.528 83.1342 195.799 83.7645C196.076 84.3949 196.447 84.9437 196.914 85.411C197.381 85.8729 197.929 86.237 198.558 86.5032C199.187 86.7695 199.854 86.9026 200.56 86.9026C200.891 86.9026 201.213 86.8619 201.528 86.7804C201.843 86.7043 202.141 86.6038 202.423 86.4788C202.705 86.3484 202.971 86.2017 203.221 86.0386C203.47 85.8756 203.695 85.7099 203.896 85.5414C204.048 85.4219 204.067 85.2833 203.953 85.1257L203.367 84.3595C203.335 84.3052 203.28 84.278 203.204 84.278C203.129 84.278 203.061 84.3025 203.001 84.3514Z" fill="#363636"/>
<path d="M213.827 77.1133C213.871 77.0047 213.873 76.9096 213.835 76.8281C213.803 76.7411 213.716 76.6976 213.575 76.6976H212.607C212.542 76.6976 212.482 76.7167 212.428 76.7547C212.373 76.7873 212.33 76.8498 212.297 76.9422L209.384 84.3921L206.511 76.9422C206.473 76.8498 206.427 76.7873 206.373 76.7547C206.319 76.7167 206.262 76.6976 206.202 76.6976H205.218C205.131 76.6976 205.049 76.733 204.973 76.8036C204.897 76.8742 204.889 76.9829 204.949 77.1296L208.562 86.0712L207.333 89.2012C207.263 89.3751 207.266 89.5001 207.342 89.5761C207.417 89.6522 207.515 89.6903 207.634 89.6903H208.521C208.581 89.6903 208.638 89.674 208.692 89.6414C208.752 89.6088 208.801 89.5463 208.839 89.4539L213.827 77.1133Z" fill="#363636"/>
</svg>
