<svg width="237" height="67" viewBox="0 0 237 67" fill="none" xmlns="http://www.w3.org/2000/svg">
<g clip-path="url(#clip0)">
<path d="M51.5744 18.6177V65.6932H42.0873V35.0795L29.4134 65.6932H22.2293L9.4871 35.0795V65.6932H0V18.6177H10.7761L25.8214 53.6243L40.8666 18.6177H51.5744Z" fill="#363636"/>
<path d="M153.502 64.6469C151.063 63.5454 149.132 62.0504 147.708 60.1617C146.315 58.3514 145.5 56.1665 145.369 53.8899H154.935C155.114 55.3283 155.825 56.5199 157.068 57.4648C158.312 58.4096 159.86 58.8815 161.712 58.8805C163.518 58.8805 164.929 58.5209 165.943 57.8017C166.958 57.0825 167.466 56.1603 167.469 55.0351C167.469 53.8214 166.847 52.911 165.605 52.3042C164.363 51.6973 162.386 51.0343 159.676 50.3151C156.873 49.6391 154.58 48.9421 152.796 48.224C151.015 47.5071 149.434 46.373 148.188 44.918C146.899 43.4343 146.255 41.4333 146.256 38.9151C146.242 36.8854 146.868 34.9024 148.047 33.2459C149.24 31.5387 150.957 30.1889 153.198 29.1965C155.439 28.2041 158.07 27.7095 161.093 27.7128C165.566 27.7128 169.135 28.8255 171.801 31.0511C174.467 33.2767 175.936 36.2781 176.207 40.0554H167.125C166.989 38.5717 166.368 37.3914 165.262 36.5146C164.155 35.6378 162.675 35.1994 160.822 35.1994C159.104 35.1994 157.783 35.5141 156.858 36.1437C156.418 36.4248 156.058 36.815 155.814 37.2762C155.571 37.7373 155.451 38.2535 155.468 38.7742C155.468 40.0344 156.101 40.9901 157.366 41.6412C158.631 42.2924 160.597 42.9554 163.263 43.6303C165.976 44.3052 168.212 45.0022 169.972 45.7214C171.747 46.4517 173.317 47.6008 174.547 49.0695C175.835 50.5813 176.501 52.5709 176.545 55.0384C176.573 57.1111 175.947 59.1404 174.755 60.8404C173.562 62.5498 171.845 63.8872 169.604 64.8526C167.363 65.818 164.754 66.3039 161.777 66.3104C158.699 66.3028 155.94 65.7483 153.502 64.6469Z" fill="#363636"/>
<path d="M184.983 22.2897C184.457 21.7744 184.04 21.1602 183.755 20.4828C183.47 19.8054 183.323 19.0783 183.323 18.3439C183.323 17.6096 183.47 16.8825 183.755 16.2051C184.04 15.5277 184.457 14.9135 184.983 14.3982C186.09 13.3421 187.479 12.8135 189.151 12.8124C190.823 12.8113 192.213 13.3399 193.319 14.3982C193.845 14.9135 194.263 15.5277 194.548 16.2051C194.833 16.8825 194.979 17.6096 194.979 18.3439C194.979 19.0783 194.833 19.8054 194.548 20.4828C194.263 21.1602 193.845 21.7744 193.319 22.2897C192.213 23.3458 190.823 23.8739 189.151 23.8739C187.479 23.8739 186.09 23.3458 184.983 22.2897ZM193.834 28.3266V65.6932H184.347V28.3266H193.834Z" fill="#363636"/>
<path d="M203.111 36.858C204.618 34.0377 206.898 31.7007 209.686 30.1181C212.487 28.5221 215.694 27.7241 219.31 27.7241C223.963 27.7241 227.814 28.8817 230.866 31.1969C233.917 33.5121 235.961 36.7614 237 40.9447H226.766C226.223 39.3249 225.308 38.0545 224.02 37.1334C222.732 36.2123 221.14 35.7512 219.243 35.7501C216.531 35.7501 214.384 36.7284 212.804 38.6851C211.225 40.6418 210.435 43.4165 210.435 47.0091C210.435 50.5618 211.226 53.3155 212.808 55.27C214.39 57.2245 216.536 58.2029 219.246 58.205C223.086 58.205 225.594 56.4962 226.769 53.0784H237.003C235.963 57.1246 233.906 60.3399 230.835 62.7242C227.763 65.1085 223.922 66.2996 219.313 66.2974C215.698 66.2974 212.49 65.4994 209.689 63.9034C206.9 62.3235 204.619 59.988 203.111 57.1684C201.529 54.269 200.738 50.8853 200.739 47.0172C200.74 43.1492 201.531 39.7628 203.111 36.858Z" fill="#363636"/>
<path d="M119.688 35.9493L119.768 31.1466C119.775 30.6829 119.884 30.2263 120.085 29.808C120.286 29.3897 120.576 29.0196 120.934 28.723C121.292 28.4263 121.71 28.2101 122.16 28.0892C122.61 27.9682 123.081 27.9453 123.54 28.0221C125.681 28.3758 127.746 29.0843 129.65 30.1181C132.558 31.686 134.965 34.0347 136.597 36.8968C138.292 39.82 139.139 43.1924 139.139 47.014C139.139 50.8355 138.271 54.2079 136.535 57.1311C134.858 59.994 132.418 62.3399 129.486 63.9098C127.564 64.9443 125.482 65.6516 123.326 66.0026C122.862 66.0792 122.387 66.0545 121.934 65.9301C121.481 65.8057 121.061 65.5846 120.702 65.2822C120.343 64.9798 120.055 64.6033 119.858 64.1789C119.66 63.7545 119.558 63.2923 119.558 62.8246V58.0705L119.688 35.9493ZM124.403 56.8233C125.917 55.9918 127.125 54.7441 128.029 53.08C128.933 51.416 129.385 49.3923 129.385 47.0091C129.385 43.4586 128.448 40.7271 126.573 38.8147C124.698 36.9022 122.403 35.9471 119.688 35.9493C116.975 35.9493 114.705 36.9049 112.877 38.8163C111.048 40.7276 110.134 43.4591 110.133 47.0107C110.133 50.5634 111.025 53.2954 112.81 55.2068C114.595 57.1181 116.842 58.0732 119.553 58.0722C121.249 58.0776 122.918 57.6474 124.398 56.8233H124.403Z" fill="#363636"/>
<path d="M79.0429 58.0721V62.8213C79.0429 63.289 78.9406 63.7511 78.743 64.1755C78.5454 64.5998 78.2573 64.9762 77.8987 65.2785C77.5401 65.5808 77.1196 65.8017 76.6665 65.9259C76.2135 66.0501 75.7386 66.0746 75.2751 65.9977C73.1184 65.647 71.0358 64.9403 69.1131 63.9066C66.1812 62.3364 63.7424 59.9905 62.0657 57.1278C60.3297 54.2057 59.4616 50.8334 59.4616 47.0107C59.4616 43.188 60.308 39.8157 62.0006 36.8936C63.6321 34.0328 66.0378 31.6852 68.9438 30.1181C70.8485 29.0849 72.9138 28.3769 75.0537 28.0237C75.5134 27.9467 75.9844 27.9693 76.4345 28.0902C76.8846 28.211 77.3031 28.4272 77.6615 28.7239C78.0199 29.0205 78.3096 29.3908 78.511 29.8092C78.7123 30.2276 78.8205 30.6844 78.8281 31.1482L78.9062 35.9525L79.0429 58.0721ZM79.0429 58.0754C81.7555 58.0754 84.0032 57.1197 85.7859 55.2084C87.5687 53.297 88.4611 50.5656 88.4633 47.0139C88.4633 43.4623 87.548 40.7303 85.7176 38.8179C83.8871 36.9055 81.6166 35.9493 78.9062 35.9493C76.1936 35.9493 73.9009 36.9044 72.0281 38.8146C70.1553 40.7249 69.2178 43.4569 69.2157 47.0107C69.2157 49.395 69.6676 51.4181 70.5714 53.08C71.4753 54.7419 72.6835 55.9902 74.196 56.8249C75.6771 57.6483 77.3464 58.0778 79.0429 58.0721V58.0754Z" fill="#363636"/>
<path d="M76.5805 34.7247V25.816C76.5805 -5.69188 121.964 -5.69188 121.964 25.816V34.7247" stroke="#363636" stroke-width="4.45303" stroke-miterlimit="10"/>
</g>
<defs>
<clipPath id="clip0">
<rect width="237" height="66.3006" fill="white"/>
</clipPath>
</defs>
</svg>
