<svg width="368" height="67" viewBox="0 0 368 67" fill="none" xmlns="http://www.w3.org/2000/svg">
<path d="M99.9257 8.93432C100.639 8.93432 101.285 9.06057 101.864 9.31308C102.458 9.56559 102.963 9.90721 103.379 10.338C103.81 10.7687 104.137 11.2737 104.359 11.853C104.597 12.4323 104.716 13.0487 104.716 13.7023C104.716 14.3707 104.597 14.9945 104.359 15.5738C104.137 16.1382 103.81 16.6358 103.379 17.0665C102.963 17.4824 102.458 17.8092 101.864 18.0469C101.285 18.2845 100.639 18.4034 99.9257 18.4034H94.1329V8.93432H99.9257ZM87.9167 34.3782C87.9167 34.9575 88.1915 35.2471 88.7411 35.2471H93.2862C93.8507 35.2471 94.1329 34.9575 94.1329 34.3782V23.706H101.307C102.733 23.706 104.048 23.4312 105.251 22.8816C106.454 22.3321 107.486 21.5968 108.348 20.6759C109.209 19.755 109.877 18.693 110.353 17.4899C110.843 16.2867 111.088 15.0316 111.088 13.7245C111.088 12.4026 110.843 11.1252 110.353 9.89236C109.863 8.65953 109.179 7.57523 108.303 6.63947C107.427 5.68885 106.38 4.93133 105.162 4.3669C103.958 3.78762 102.636 3.49797 101.196 3.49797H88.7411C88.4886 3.49797 88.2881 3.57224 88.1395 3.72078C87.991 3.85446 87.9167 4.0624 87.9167 4.34462V34.3782Z" fill="#363636"/>
<path d="M135.741 21.7008C135.741 22.8594 135.533 23.9511 135.117 24.976C134.716 26.0009 134.152 26.8995 133.424 27.6719C132.696 28.4442 131.835 29.0607 130.839 29.5211C129.844 29.9667 128.767 30.1895 127.609 30.1895C126.48 30.1895 125.425 29.9741 124.445 29.5434C123.479 29.0978 122.633 28.4962 121.905 27.7387C121.192 26.9663 120.628 26.0677 120.212 25.0428C119.811 24.0031 119.61 22.8891 119.61 21.7008C119.61 20.468 119.818 19.3317 120.234 18.292C120.665 17.2522 121.244 16.3536 121.972 15.5961C122.7 14.8385 123.546 14.2518 124.512 13.8359C125.492 13.4052 126.524 13.1898 127.609 13.1898C128.738 13.1898 129.792 13.42 130.772 13.8805C131.768 14.3261 132.629 14.9351 133.357 15.7075C134.1 16.4798 134.679 17.3859 135.095 18.4256C135.526 19.4505 135.741 20.5422 135.741 21.7008ZM141.801 8.82291C141.801 8.22878 141.519 7.93171 140.954 7.93171H137.39C137.093 7.93171 136.885 8.00598 136.766 8.15451C136.647 8.30305 136.565 8.52585 136.521 8.82291L136.142 11.4965C134.983 10.1746 133.691 9.2091 132.265 8.60011C130.839 7.97627 129.198 7.66435 127.341 7.66435C125.44 7.66435 123.65 8.03568 121.972 8.77835C120.293 9.52102 118.83 10.5311 117.583 11.8084C116.335 13.071 115.347 14.5563 114.619 16.2645C113.892 17.9726 113.528 19.7921 113.528 21.7231C113.528 23.7729 113.906 25.6592 114.664 27.3822C115.422 29.0904 116.439 30.5683 117.716 31.816C118.994 33.0488 120.464 34.0143 122.128 34.7124C123.791 35.3956 125.529 35.7373 127.341 35.7373C128.946 35.7373 130.468 35.4179 131.909 34.7792C133.364 34.1405 134.672 33.2567 135.83 32.1279V33.9103C135.83 34.2965 135.949 34.6158 136.187 34.8683C136.439 35.1208 136.758 35.2471 137.145 35.2471H140.954C141.519 35.2471 141.801 34.95 141.801 34.3559V8.82291Z" fill="#363636"/>
<path d="M153.47 19.7624C153.47 18.7821 153.656 17.9058 154.027 17.1334C154.399 16.3462 154.874 15.6852 155.453 15.1505C156.033 14.6009 156.679 14.185 157.392 13.9028C158.119 13.6206 158.84 13.4795 159.553 13.4795C160.414 13.4795 161.209 13.6503 161.937 13.9919C162.665 14.3187 163.288 14.7643 163.808 15.3287C164.343 15.8783 164.759 16.517 165.056 17.2448C165.353 17.9578 165.502 18.7004 165.502 19.4728V34.3559C165.502 34.95 165.806 35.2471 166.415 35.2471H170.715C171.28 35.2471 171.562 34.95 171.562 34.3559V19.2723C171.562 17.2374 171.242 15.4921 170.604 14.0365C169.98 12.5808 169.17 11.3851 168.175 10.4494C167.195 9.5136 166.096 8.83034 164.878 8.39959C163.675 7.95399 162.494 7.73119 161.335 7.73119C160.548 7.73119 159.761 7.81288 158.974 7.97627C158.201 8.13966 157.444 8.39959 156.701 8.75607C155.973 9.11256 155.275 9.56558 154.607 10.1152C153.953 10.6647 153.359 11.3257 152.824 12.0981L152.468 9.02344C152.393 8.72637 152.238 8.47386 152 8.26591C151.762 8.04311 151.495 7.93171 151.198 7.93171H148.301C147.692 7.93171 147.388 8.23621 147.388 8.84519V34.3336C147.388 34.9426 147.692 35.2471 148.301 35.2471H152.245C152.542 35.2471 152.817 35.1728 153.069 35.0243C153.337 34.8609 153.47 34.6307 153.47 34.3336V19.7624Z" fill="#363636"/>
<path d="M182.253 21.5671C182.253 20.5571 182.439 19.5545 182.81 18.5593C183.197 17.5641 183.739 16.6804 184.437 15.908C185.15 15.1208 186.004 14.4895 186.999 14.0142C188.009 13.524 189.131 13.2789 190.363 13.2789C191.596 13.2789 192.71 13.4943 193.705 13.9251C194.701 14.3409 195.54 14.9202 196.223 15.6629C196.921 16.4056 197.456 17.2819 197.827 18.292C198.199 19.302 198.384 20.3937 198.384 21.5671C198.384 22.7405 198.191 23.8471 197.805 24.8869C197.419 25.9117 196.869 26.8104 196.156 27.5827C195.458 28.3403 194.611 28.9418 193.616 29.3874C192.636 29.8182 191.544 30.0336 190.341 30.0336C189.108 30.0336 187.994 29.7885 186.999 29.2983C186.004 28.7933 185.15 28.1398 184.437 27.3377C183.739 26.5356 183.197 25.6295 182.81 24.6195C182.439 23.6095 182.253 22.592 182.253 21.5671ZM176.505 42.5772C176.505 43.1714 176.802 43.4684 177.396 43.4684H181.63C182.194 43.4684 182.476 43.1714 182.476 42.5772V31.8605C183.546 33.0042 184.801 33.9103 186.242 34.5787C187.682 35.2322 189.257 35.559 190.965 35.559C192.926 35.559 194.73 35.1951 196.379 34.4673C198.028 33.7246 199.446 32.722 200.634 31.4595C201.838 30.1821 202.773 28.6893 203.442 26.9812C204.11 25.273 204.444 23.4535 204.444 21.5226C204.444 19.4728 204.08 17.6013 203.353 15.908C202.64 14.2147 201.667 12.7591 200.434 11.5411C199.201 10.3231 197.768 9.37992 196.134 8.71152C194.515 8.04311 192.799 7.70891 190.987 7.70891C189.279 7.70891 187.667 8.08025 186.152 8.82291C184.652 9.56558 183.338 10.5682 182.209 11.8307L181.741 9.1794C181.667 8.80806 181.526 8.51099 181.318 8.28819C181.125 8.05054 180.835 7.93171 180.449 7.93171H177.396C176.802 7.93171 176.505 8.22878 176.505 8.82291V42.5772Z" fill="#363636"/>
<path d="M227.112 34.3113C227.112 34.9352 227.401 35.2471 227.981 35.2471H232.414C232.711 35.2471 232.934 35.1654 233.083 35.002C233.231 34.8238 233.305 34.5935 233.305 34.3113V20.3194C233.305 19.4282 233.231 18.4999 233.083 17.5344C232.949 16.569 232.719 15.6258 232.392 14.7049C232.08 13.7691 231.664 12.8853 231.144 12.0535C230.624 11.2217 229.971 10.4939 229.184 9.87008C228.411 9.24624 227.498 8.74865 226.443 8.37731C225.403 8.00598 224.2 7.82031 222.834 7.82031C221.393 7.82031 220.071 8.11738 218.868 8.71152C217.68 9.30565 216.618 10.1077 215.682 11.1178V0.935765C215.682 0.668404 215.6 0.445603 215.437 0.267362C215.288 0.0891207 215.073 0 214.791 0H210.357C209.763 0 209.466 0.311922 209.466 0.935765V34.3113C209.466 34.9352 209.763 35.2471 210.357 35.2471H214.791C215.088 35.2471 215.311 35.1654 215.459 35.002C215.608 34.8238 215.682 34.5935 215.682 34.3113V20.2526C215.682 19.2277 215.83 18.3068 216.128 17.4899C216.425 16.6581 216.833 15.96 217.353 15.3955C217.873 14.8163 218.482 14.3707 219.18 14.0587C219.893 13.7468 220.65 13.5909 221.452 13.5909C222.418 13.5909 223.257 13.7765 223.97 14.1479C224.683 14.5192 225.27 15.0242 225.73 15.6629C226.206 16.3016 226.555 17.0517 226.777 17.9132C227 18.7747 227.112 19.703 227.112 20.6982V34.3113Z" fill="#363636"/>
<path d="M259.771 21.7008C259.771 22.8594 259.563 23.9511 259.148 24.976C258.747 26.0009 258.182 26.8995 257.454 27.6719C256.726 28.4442 255.865 29.0607 254.87 29.5211C253.875 29.9667 252.798 30.1895 251.639 30.1895C250.51 30.1895 249.456 29.9741 248.475 29.5434C247.51 29.0978 246.663 28.4962 245.935 27.7387C245.223 26.9663 244.658 26.0677 244.242 25.0428C243.841 24.0031 243.641 22.8891 243.641 21.7008C243.641 20.468 243.849 19.3317 244.264 18.292C244.695 17.2522 245.274 16.3536 246.002 15.5961C246.73 14.8385 247.577 14.2518 248.542 13.8359C249.523 13.4052 250.555 13.1898 251.639 13.1898C252.768 13.1898 253.823 13.42 254.803 13.8805C255.798 14.3261 256.66 14.9351 257.387 15.7075C258.13 16.4798 258.709 17.3859 259.125 18.4256C259.556 19.4505 259.771 20.5422 259.771 21.7008ZM265.832 8.82291C265.832 8.22878 265.549 7.93171 264.985 7.93171H261.42C261.123 7.93171 260.915 8.00598 260.796 8.15451C260.677 8.30305 260.596 8.52585 260.551 8.82291L260.172 11.4965C259.014 10.1746 257.722 9.2091 256.296 8.60011C254.87 7.97627 253.228 7.66435 251.372 7.66435C249.471 7.66435 247.681 8.03568 246.002 8.77835C244.324 9.52102 242.861 10.5311 241.613 11.8084C240.365 13.071 239.378 14.5563 238.65 16.2645C237.922 17.9726 237.558 19.7921 237.558 21.7231C237.558 23.7729 237.937 25.6592 238.694 27.3822C239.452 29.0904 240.469 30.5683 241.747 31.816C243.024 33.0488 244.495 34.0143 246.158 34.7124C247.822 35.3956 249.56 35.7373 251.372 35.7373C252.976 35.7373 254.498 35.4179 255.939 34.7792C257.395 34.1405 258.702 33.2567 259.861 32.1279V33.9103C259.861 34.2965 259.979 34.6158 260.217 34.8683C260.47 35.1208 260.789 35.2471 261.175 35.2471H264.985C265.549 35.2471 265.832 34.95 265.832 34.3559V8.82291Z" fill="#363636"/>
<path d="M271.374 34.3559C271.374 34.95 271.656 35.2471 272.22 35.2471H276.61C277.219 35.2471 277.508 34.95 277.479 34.3559V19.406C277.479 18.3365 277.634 17.423 277.946 16.6655C278.258 15.8931 278.667 15.2544 279.172 14.7494C279.677 14.2444 280.249 13.8731 280.887 13.6354C281.526 13.3978 282.172 13.2789 282.826 13.2789C283.346 13.2789 283.836 13.3309 284.296 13.4349C284.757 13.5389 285.187 13.68 285.588 13.8582C285.99 14.0216 286.361 14.2073 286.702 14.4152C287.044 14.6083 287.356 14.8088 287.638 15.0168C287.891 15.195 288.114 15.2841 288.307 15.2841C288.544 15.2841 288.737 15.1653 288.886 14.9277L290.891 12.0981C291.055 11.8753 291.136 11.6525 291.136 11.4297C291.136 11.192 290.973 10.9247 290.646 10.6276C290.423 10.4197 290.082 10.1523 289.621 9.82552C289.176 9.48389 288.633 9.15712 287.995 8.84519C287.371 8.51842 286.673 8.23621 285.9 7.99855C285.143 7.7609 284.341 7.64207 283.494 7.64207C282.128 7.64207 280.887 7.96884 279.773 8.62239C278.659 9.26109 277.746 10.1523 277.033 11.296L276.61 8.9566C276.52 8.48129 276.35 8.19907 276.097 8.10995C275.859 8.00598 275.592 7.95399 275.295 7.95399H272.22C271.656 7.95399 271.374 8.25849 271.374 8.86748V34.3559Z" fill="#363636"/>
<path d="M300.965 19.1832C300.965 18.188 301.143 17.3339 301.499 16.6209C301.871 15.8931 302.331 15.299 302.881 14.8385C303.43 14.3781 304.032 14.0439 304.685 13.8359C305.339 13.6131 305.955 13.5017 306.535 13.5017C307.381 13.5017 308.131 13.6725 308.785 14.0142C309.438 14.3558 309.988 14.794 310.434 15.3287C310.894 15.8634 311.243 16.465 311.481 17.1334C311.718 17.8018 311.837 18.4702 311.837 19.1386V34.3559C311.837 34.95 312.134 35.2471 312.728 35.2471H317.073C317.637 35.2471 317.92 34.95 317.92 34.3559V18.9381C317.92 18.1806 318.068 17.475 318.365 16.8215C318.662 16.1679 319.063 15.5961 319.568 15.1059C320.073 14.6157 320.66 14.2295 321.329 13.9473C321.997 13.6651 322.695 13.524 323.423 13.524C324.299 13.524 325.072 13.6948 325.74 14.0365C326.423 14.3632 326.995 14.8014 327.456 15.351C327.916 15.8857 328.265 16.4947 328.503 17.1779C328.74 17.8463 328.859 18.5296 328.859 19.2277V34.3336C328.859 34.9426 329.156 35.2471 329.75 35.2471H334.073C334.652 35.2471 334.942 34.9426 334.942 34.3336V19.2277C334.942 17.683 334.734 16.2125 334.318 14.8163C333.902 13.42 333.263 12.1946 332.402 11.14C331.555 10.0855 330.478 9.25366 329.171 8.64467C327.879 8.02083 326.349 7.70891 324.581 7.70891C323.467 7.70891 322.48 7.82774 321.618 8.06539C320.757 8.28819 319.984 8.60754 319.301 9.02344C318.618 9.43933 318.001 9.94435 317.452 10.5385C316.902 11.1178 316.39 11.7639 315.914 12.4768C315.068 10.8281 313.983 9.625 312.662 8.86748C311.354 8.0951 309.802 7.70891 308.005 7.70891C306.431 7.70891 304.99 8.05054 303.683 8.7338C302.376 9.4022 301.232 10.3528 300.252 11.5856L299.94 9.02344C299.88 8.72637 299.732 8.47386 299.494 8.26591C299.256 8.04311 298.989 7.93171 298.692 7.93171H295.64C295.06 7.93171 294.771 8.23621 294.771 8.84519V34.3336C294.771 34.9426 295.06 35.2471 295.64 35.2471H300.051C300.69 35.2471 300.994 34.9426 300.965 34.3336V19.1832Z" fill="#363636"/>
<path d="M361.828 21.7008C361.828 22.8594 361.62 23.9511 361.204 24.976C360.803 26.0009 360.239 26.8995 359.511 27.6719C358.783 28.4442 357.922 29.0607 356.927 29.5211C355.931 29.9667 354.854 30.1895 353.696 30.1895C352.567 30.1895 351.512 29.9741 350.532 29.5434C349.567 29.0978 348.72 28.4962 347.992 27.7387C347.279 26.9663 346.715 26.0677 346.299 25.0428C345.898 24.0031 345.697 22.8891 345.697 21.7008C345.697 20.468 345.905 19.3317 346.321 18.292C346.752 17.2522 347.331 16.3536 348.059 15.5961C348.787 14.8385 349.633 14.2518 350.599 13.8359C351.579 13.4052 352.612 13.1898 353.696 13.1898C354.825 13.1898 355.879 13.42 356.86 13.8805C357.855 14.3261 358.716 14.9351 359.444 15.7075C360.187 16.4798 360.766 17.3859 361.182 18.4256C361.613 19.4505 361.828 20.5422 361.828 21.7008ZM367.888 8.82291C367.888 8.22878 367.606 7.93171 367.042 7.93171H363.477C363.18 7.93171 362.972 8.00598 362.853 8.15451C362.734 8.30305 362.653 8.52585 362.608 8.82291L362.229 11.4965C361.071 10.1746 359.778 9.2091 358.352 8.60011C356.927 7.97627 355.285 7.66435 353.429 7.66435C351.527 7.66435 349.737 8.03568 348.059 8.77835C346.381 9.52102 344.918 10.5311 343.67 11.8084C342.422 13.071 341.434 14.5563 340.707 16.2645C339.979 17.9726 339.615 19.7921 339.615 21.7231C339.615 23.7729 339.994 25.6592 340.751 27.3822C341.509 29.0904 342.526 30.5683 343.804 31.816C345.081 33.0488 346.551 34.0143 348.215 34.7124C349.879 35.3956 351.616 35.7373 353.429 35.7373C355.033 35.7373 356.555 35.4179 357.996 34.7792C359.452 34.1405 360.759 33.2567 361.917 32.1279V33.9103C361.917 34.2965 362.036 34.6158 362.274 34.8683C362.526 35.1208 362.846 35.2471 363.232 35.2471H367.042C367.606 35.2471 367.888 34.95 367.888 34.3559V8.82291Z" fill="#363636"/>
<path d="M89.087 62.5486C89.087 62.7658 89.1929 62.8744 89.4045 62.8744H91.1006C91.3123 62.8744 91.4181 62.7658 91.4181 62.5486V51.3027C91.4181 51.0799 91.3123 50.9685 91.1006 50.9685H89.4045C89.1929 50.9685 89.087 51.0799 89.087 51.3027V62.5486Z" fill="#363636"/>
<path d="M96.1032 57.0677C96.1032 56.7001 96.1728 56.3714 96.3121 56.0818C96.4513 55.7866 96.6295 55.5387 96.8468 55.3382C97.064 55.1321 97.3063 54.9761 97.5737 54.8703C97.8466 54.7645 98.1167 54.7116 98.3841 54.7116C98.7072 54.7116 99.0052 54.7756 99.2781 54.9037C99.551 55.0263 99.785 55.1934 99.9799 55.405C100.18 55.6111 100.336 55.8506 100.448 56.1236C100.559 56.3909 100.615 56.6694 100.615 56.9591V62.5402C100.615 62.763 100.729 62.8744 100.957 62.8744H102.57C102.782 62.8744 102.887 62.763 102.887 62.5402V56.8839C102.887 56.1208 102.768 55.4663 102.528 54.9204C102.294 54.3746 101.991 53.9262 101.617 53.5753C101.25 53.2244 100.838 52.9681 100.381 52.8066C99.9298 52.6395 99.487 52.556 99.0525 52.556C98.7573 52.556 98.4621 52.5866 98.1669 52.6479C97.8772 52.7091 97.5932 52.8066 97.3147 52.9403C97.0417 53.074 96.7799 53.2439 96.5293 53.45C96.2842 53.656 96.0614 53.9039 95.8609 54.1936L95.7272 53.0406C95.6993 52.9292 95.6409 52.8345 95.5517 52.7565C95.4626 52.6729 95.3624 52.6312 95.251 52.6312H94.1648C93.9364 52.6312 93.8223 52.7453 93.8223 52.9737V62.5319C93.8223 62.7602 93.9364 62.8744 94.1648 62.8744H95.6436C95.755 62.8744 95.8581 62.8466 95.9528 62.7909C96.053 62.7296 96.1032 62.6433 96.1032 62.5319V57.0677Z" fill="#363636"/>
<path d="M104.733 62.6071C104.733 62.8577 104.708 63.0861 104.658 63.2922C104.608 63.5038 104.524 63.6849 104.407 63.8353C104.296 63.9857 104.145 64.1026 103.956 64.1862C103.772 64.2697 103.541 64.3115 103.262 64.3115C103.162 64.3115 103.084 64.3254 103.028 64.3533C102.973 64.3811 102.934 64.4145 102.911 64.4535C102.884 64.4925 102.867 64.5315 102.861 64.5705C102.856 64.6151 102.853 64.6541 102.853 64.6875V65.8739C102.853 65.9463 102.895 66.0159 102.978 66.0828C103.062 66.1496 103.184 66.183 103.346 66.183C103.936 66.183 104.46 66.0939 104.917 65.9157C105.379 65.7374 105.769 65.4923 106.086 65.1804C106.404 64.8741 106.643 64.5148 106.805 64.1026C106.972 63.696 107.056 63.2588 107.056 62.7909V52.9904C107.056 52.7621 106.95 52.6479 106.738 52.6479H105.067C104.844 52.6479 104.733 52.7621 104.733 52.9904V62.6071ZM104.75 50.8766C104.75 51.0493 104.797 51.169 104.892 51.2359C104.986 51.2971 105.106 51.3278 105.251 51.3278H106.646C106.791 51.3278 106.902 51.2971 106.98 51.2359C107.064 51.169 107.106 51.0493 107.106 50.8766V49.473C107.106 49.317 107.07 49.1945 106.997 49.1053C106.925 49.0106 106.808 48.9633 106.646 48.9633H105.251C105.067 48.9633 104.936 49.0134 104.858 49.1137C104.786 49.2084 104.75 49.3281 104.75 49.473V50.8766Z" fill="#363636"/>
<path d="M114.135 54.4943C114.47 54.4943 114.784 54.55 115.08 54.6614C115.375 54.7673 115.642 54.9177 115.882 55.1126C116.127 55.3076 116.341 55.5415 116.525 55.8144C116.714 56.0818 116.868 56.377 116.984 56.7001H111.261C111.367 56.3937 111.512 56.1069 111.696 55.8395C111.885 55.5721 112.102 55.3382 112.347 55.1377C112.598 54.9372 112.874 54.7812 113.175 54.6698C113.475 54.5528 113.796 54.4943 114.135 54.4943ZM116.667 60.0671C116.528 60.1674 116.386 60.276 116.241 60.393C116.102 60.5044 115.937 60.6102 115.748 60.7105C115.564 60.8052 115.347 60.8832 115.096 60.9444C114.846 61.0057 114.545 61.0363 114.194 61.0363C113.826 61.0363 113.478 60.9806 113.15 60.8692C112.821 60.7523 112.523 60.5907 112.256 60.3846C111.994 60.173 111.768 59.9195 111.579 59.6243C111.389 59.3235 111.253 58.9921 111.169 58.6301H118.355C118.522 58.6301 118.658 58.6217 118.764 58.605C118.87 58.5827 118.953 58.5437 119.015 58.488C119.076 58.4268 119.118 58.3432 119.14 58.2374C119.162 58.1316 119.174 57.9895 119.174 57.8113C119.174 57.1986 119.098 56.6444 118.948 56.1486C118.803 55.6473 118.605 55.2017 118.355 54.8118C118.11 54.4219 117.82 54.0849 117.486 53.8009C117.152 53.5168 116.795 53.2829 116.416 53.099C116.043 52.9097 115.659 52.7704 115.263 52.6813C114.873 52.5866 114.492 52.5393 114.119 52.5393C113.367 52.5393 112.673 52.6785 112.038 52.957C111.403 53.2355 110.855 53.6143 110.392 54.0933C109.936 54.5723 109.576 55.1321 109.315 55.7727C109.058 56.4076 108.93 57.0872 108.93 57.8113C108.93 58.5354 109.072 59.2149 109.356 59.8499C109.64 60.4849 110.022 61.0419 110.501 61.5209C110.986 61.9944 111.543 62.3703 112.172 62.6488C112.807 62.9218 113.475 63.0582 114.177 63.0582C114.846 63.0582 115.475 62.9441 116.065 62.7157C116.661 62.4873 117.263 62.1086 117.87 61.5794C118.026 61.4402 118.034 61.2786 117.895 61.0948L117.076 60.0922C117.049 60.0532 117.018 60.0282 116.984 60.017C116.951 60.0003 116.918 59.9919 116.884 59.9919C116.812 59.9919 116.739 60.017 116.667 60.0671Z" fill="#363636"/>
<path d="M128.066 60.1173C127.938 60.2175 127.793 60.3178 127.632 60.4181C127.476 60.5183 127.306 60.6102 127.122 60.6938C126.938 60.7773 126.738 60.8442 126.521 60.8943C126.309 60.9444 126.083 60.9695 125.844 60.9695C125.421 60.9695 125.025 60.8915 124.658 60.7355C124.29 60.574 123.967 60.3512 123.688 60.0671C123.415 59.7831 123.198 59.4461 123.037 59.0562C122.881 58.6663 122.803 58.243 122.803 57.7862C122.803 57.3183 122.886 56.8894 123.053 56.4995C123.22 56.1096 123.443 55.7727 123.722 55.4886C124.006 55.2045 124.329 54.9845 124.691 54.8285C125.059 54.667 125.44 54.5862 125.836 54.5862C126.209 54.5862 126.582 54.6475 126.955 54.7701C127.328 54.887 127.707 55.0959 128.091 55.3967C128.147 55.4357 128.208 55.4552 128.275 55.4552C128.359 55.4552 128.423 55.4245 128.467 55.3633L129.286 54.1016C129.32 54.0459 129.334 53.9875 129.328 53.9262C129.322 53.8649 129.283 53.8037 129.211 53.7424C128.738 53.3581 128.228 53.0601 127.682 52.8484C127.136 52.6312 126.512 52.5253 125.811 52.5309C125.103 52.5309 124.432 52.6674 123.797 52.9403C123.168 53.2132 122.613 53.5864 122.134 54.0599C121.661 54.5278 121.285 55.082 121.006 55.7225C120.728 56.3575 120.589 57.0426 120.589 57.7779C120.589 58.5354 120.728 59.2372 121.006 59.8833C121.285 60.5239 121.664 61.0809 122.143 61.5543C122.622 62.0278 123.181 62.3982 123.822 62.6656C124.463 62.9329 125.145 63.0666 125.869 63.0666C126.187 63.0666 126.504 63.0332 126.821 62.9663C127.139 62.8995 127.443 62.8076 127.732 62.6906C128.027 62.5737 128.3 62.44 128.551 62.2896C128.807 62.1336 129.033 61.9721 129.228 61.805C129.384 61.6713 129.403 61.5153 129.286 61.3371L128.467 60.134C128.428 60.0727 128.367 60.0421 128.284 60.0421C128.2 60.0421 128.128 60.0671 128.066 60.1173Z" fill="#363636"/>
<path d="M133.85 50.5006C133.85 50.4004 133.831 50.3168 133.792 50.25C133.753 50.1776 133.691 50.1414 133.608 50.1414C133.591 50.1414 133.561 50.1469 133.516 50.1581L131.878 50.6343C131.75 50.6677 131.664 50.7123 131.619 50.768C131.575 50.8237 131.553 50.9072 131.553 51.0186V52.698H130.625C130.542 52.698 130.461 52.7286 130.383 52.7899C130.31 52.8512 130.274 52.9459 130.274 53.074V54.3774C130.274 54.4943 130.313 54.5835 130.391 54.6447C130.469 54.7004 130.547 54.7283 130.625 54.7283H131.553V59.9669C131.553 60.4292 131.631 60.8442 131.786 61.2118C131.948 61.5794 132.171 61.8913 132.455 62.1475C132.739 62.3982 133.079 62.5931 133.474 62.7324C133.87 62.8661 134.301 62.9329 134.769 62.9329C134.914 62.9329 135.028 62.9162 135.112 62.8828C135.195 62.8549 135.257 62.8215 135.296 62.7825C135.34 62.738 135.365 62.6934 135.371 62.6488C135.382 62.5987 135.387 62.5597 135.387 62.5319V61.3956C135.387 61.3677 135.385 61.3315 135.379 61.287C135.379 61.2368 135.365 61.1895 135.337 61.1449C135.315 61.0948 135.276 61.053 135.22 61.0196C135.165 60.9806 135.084 60.9583 134.978 60.9528L134.719 60.9361C134.541 60.9249 134.396 60.8859 134.285 60.8191C134.173 60.7523 134.084 60.6659 134.017 60.5601C133.956 60.4487 133.911 60.3234 133.884 60.1841C133.861 60.0393 133.85 59.8861 133.85 59.7246V54.7283H135.003C135.109 54.7283 135.198 54.6976 135.271 54.6364C135.343 54.5751 135.379 54.4888 135.379 54.3774V53.0489C135.379 52.9264 135.349 52.8373 135.287 52.7816C135.226 52.7259 135.142 52.698 135.037 52.698H133.85V50.5006Z" fill="#363636"/>
<path d="M137.123 62.5486C137.123 62.7658 137.229 62.8744 137.441 62.8744H139.145C139.351 62.8744 139.454 62.7658 139.454 62.5486V52.957C139.454 52.8567 139.426 52.7788 139.371 52.7231C139.315 52.6618 139.24 52.6312 139.145 52.6312H137.441C137.357 52.6312 137.282 52.659 137.215 52.7147C137.154 52.7648 137.123 52.8456 137.123 52.957V62.5486ZM137.056 50.8766C137.056 51.0493 137.104 51.169 137.198 51.2359C137.293 51.2971 137.413 51.3278 137.558 51.3278H138.953C139.098 51.3278 139.209 51.2971 139.287 51.2359C139.371 51.169 139.413 51.0493 139.413 50.8766V49.473C139.413 49.317 139.376 49.1945 139.304 49.1053C139.232 49.0106 139.115 48.9633 138.953 48.9633H137.558C137.374 48.9633 137.243 49.0134 137.165 49.1137C137.093 49.2084 137.056 49.3281 137.056 49.473V50.8766Z" fill="#363636"/>
<path d="M144.306 57.0677C144.306 56.7001 144.376 56.3714 144.515 56.0818C144.655 55.7866 144.833 55.5387 145.05 55.3382C145.267 55.1321 145.51 54.9761 145.777 54.8703C146.05 54.7645 146.32 54.7116 146.587 54.7116C146.91 54.7116 147.208 54.7756 147.481 54.9037C147.754 55.0263 147.988 55.1934 148.183 55.405C148.384 55.6111 148.54 55.8506 148.651 56.1236C148.763 56.3909 148.818 56.6694 148.818 56.9591V62.5402C148.818 62.763 148.932 62.8744 149.161 62.8744H150.773C150.985 62.8744 151.091 62.763 151.091 62.5402V56.8839C151.091 56.1208 150.971 55.4663 150.732 54.9204C150.498 54.3746 150.194 53.9262 149.821 53.5753C149.453 53.2244 149.041 52.9681 148.584 52.8066C148.133 52.6395 147.69 52.556 147.256 52.556C146.961 52.556 146.665 52.5866 146.37 52.6479C146.081 52.7091 145.796 52.8066 145.518 52.9403C145.245 53.074 144.983 53.2439 144.733 53.45C144.488 53.656 144.265 53.9039 144.064 54.1936L143.931 53.0406C143.903 52.9292 143.844 52.8345 143.755 52.7565C143.666 52.6729 143.566 52.6312 143.454 52.6312H142.368C142.14 52.6312 142.026 52.7453 142.026 52.9737V62.5319C142.026 62.7602 142.14 62.8744 142.368 62.8744H143.847C143.958 62.8744 144.061 62.8466 144.156 62.7909C144.256 62.7296 144.306 62.6433 144.306 62.5319V57.0677Z" fill="#363636"/>
<path d="M160.882 57.7612C160.882 58.1956 160.807 58.605 160.656 58.9893C160.511 59.3737 160.305 59.7107 160.038 60.0003C159.771 60.2899 159.453 60.5183 159.086 60.6854C158.718 60.8525 158.317 60.9361 157.882 60.9361C157.448 60.9361 157.041 60.8609 156.663 60.7105C156.289 60.5545 155.964 60.3373 155.685 60.0588C155.412 59.7803 155.195 59.4489 155.033 59.0645C154.877 58.6746 154.799 58.2457 154.799 57.7779C154.799 57.3434 154.872 56.934 155.017 56.5497C155.161 56.1653 155.368 55.8284 155.635 55.5387C155.902 55.2435 156.223 55.0123 156.596 54.8452C156.969 54.6726 157.384 54.5862 157.841 54.5862C158.281 54.5862 158.684 54.6726 159.052 54.8452C159.425 55.0123 159.746 55.2407 160.013 55.5304C160.286 55.8144 160.498 56.1486 160.648 56.533C160.804 56.9173 160.882 57.3267 160.882 57.7612ZM163.046 52.9821C163.046 52.7481 162.946 52.6312 162.745 52.6312H161.45C161.322 52.6312 161.23 52.6646 161.174 52.7314C161.119 52.7927 161.08 52.8957 161.057 53.0406L160.915 53.9847C160.492 53.5224 160.013 53.1631 159.478 52.9069C158.943 52.6451 158.328 52.5142 157.632 52.5142C156.958 52.5142 156.314 52.6534 155.702 52.9319C155.095 53.2104 154.557 53.5864 154.089 54.0599C153.627 54.5333 153.259 55.0875 152.986 55.7225C152.713 56.3519 152.577 57.0231 152.577 57.7361C152.577 58.4936 152.713 59.1871 152.986 59.8165C153.265 60.4459 153.635 60.9862 154.098 61.4374C154.565 61.8885 155.103 62.2395 155.71 62.4901C156.323 62.7408 156.963 62.8661 157.632 62.8661C158.317 62.8661 158.91 62.7435 159.411 62.4985C159.913 62.2478 160.378 61.8941 160.807 61.4374V61.4708C160.807 61.883 160.737 62.2617 160.598 62.6071C160.464 62.9468 160.272 63.2393 160.021 63.4844C159.776 63.7294 159.484 63.9188 159.144 64.0525C158.804 64.1917 158.431 64.2614 158.024 64.2614C157.484 64.2614 156.991 64.1973 156.546 64.0692C156.106 63.9411 155.718 63.7601 155.384 63.5261C155.284 63.4593 155.189 63.4259 155.1 63.4259C154.983 63.4259 154.888 63.4816 154.816 63.593L154.148 64.5622C154.103 64.629 154.07 64.6986 154.047 64.771C154.031 64.849 154.078 64.9353 154.189 65.03C154.423 65.2306 154.685 65.4088 154.975 65.5648C155.264 65.7263 155.568 65.86 155.886 65.9658C156.203 66.0772 156.529 66.1607 156.863 66.2164C157.197 66.2721 157.529 66.3 157.857 66.3C158.693 66.3 159.431 66.1691 160.071 65.9073C160.718 65.6455 161.261 65.2751 161.701 64.7961C162.141 64.3226 162.475 63.7489 162.703 63.075C162.932 62.4066 163.046 61.6657 163.046 60.8525V52.9821Z" fill="#363636"/>
<path d="M170.667 62.5569C170.667 62.7686 170.77 62.8744 170.976 62.8744H178.061C178.284 62.8744 178.395 62.7686 178.395 62.5569V60.9695C178.395 60.7634 178.284 60.6603 178.061 60.6603H173.006V51.2944C173.006 51.0716 172.903 50.9602 172.697 50.9602H170.976C170.887 50.9602 170.811 50.9908 170.75 51.0521C170.694 51.1078 170.667 51.1885 170.667 51.2944V62.5569Z" fill="#363636"/>
<path d="M179.979 62.5486C179.979 62.7658 180.085 62.8744 180.297 62.8744H181.993C182.205 62.8744 182.31 62.7658 182.31 62.5486V51.3027C182.31 51.0799 182.205 50.9685 181.993 50.9685H180.297C180.085 50.9685 179.979 51.0799 179.979 51.3027V62.5486Z" fill="#363636"/>
<path d="M184.907 62.5569C184.907 62.7686 185.013 62.8744 185.224 62.8744H186.937C187.149 62.8744 187.254 62.7686 187.254 62.5569V58.4296H191.566C191.772 58.4296 191.875 58.3237 191.875 58.1121V56.6332C191.875 56.4216 191.772 56.3157 191.566 56.3157H187.254V53.1575H192.911C193.117 53.1575 193.22 53.0517 193.22 52.84V51.286C193.22 51.0743 193.117 50.9685 192.911 50.9685H185.224C185.013 50.9685 184.907 51.0743 184.907 51.286V62.5569Z" fill="#363636"/>
<path d="M195.112 62.5569C195.112 62.7686 195.215 62.8744 195.422 62.8744H203.409C203.632 62.8744 203.743 62.7686 203.743 62.5569V61.0113C203.743 60.7996 203.632 60.6938 203.409 60.6938H197.452V57.7528H201.88C202.119 57.7528 202.239 57.647 202.239 57.4353V55.9147C202.239 55.8033 202.206 55.7225 202.139 55.6724C202.078 55.6167 201.991 55.5888 201.88 55.5888H197.452V53.1575H203.259C203.476 53.1575 203.584 53.0517 203.584 52.84V51.286C203.584 51.0743 203.476 50.9685 203.259 50.9685H195.422C195.215 50.9685 195.112 51.0743 195.112 51.286V62.5569Z" fill="#363636"/>
<path d="M170.64 62.5572C170.64 62.7689 170.743 62.8747 170.949 62.8747H178.034C178.257 62.8747 178.369 62.7689 178.369 62.5572V60.9698C178.369 60.7637 178.257 60.6607 178.034 60.6607H172.98V51.2947C172.98 51.0719 172.877 50.9605 172.67 50.9605H170.949C170.86 50.9605 170.785 50.9911 170.724 51.0524C170.668 51.1081 170.64 51.1888 170.64 51.2947V62.5572Z" fill="#363636"/>
<path d="M179.953 62.5489C179.953 62.7661 180.059 62.8747 180.27 62.8747H181.966C182.178 62.8747 182.284 62.7661 182.284 62.5489V51.303C182.284 51.0802 182.178 50.9688 181.966 50.9688H180.27C180.059 50.9688 179.953 51.0802 179.953 51.303V62.5489Z" fill="#363636"/>
<path d="M184.88 62.5572C184.88 62.7689 184.986 62.8747 185.198 62.8747H186.911C187.122 62.8747 187.228 62.7689 187.228 62.5572V58.4299H191.539C191.745 58.4299 191.848 58.324 191.848 58.1124V56.6335C191.848 56.4219 191.745 56.316 191.539 56.316H187.228V53.1578H192.884C193.09 53.1578 193.194 53.052 193.194 52.8403V51.2863C193.194 51.0746 193.09 50.9688 192.884 50.9688H185.198C184.986 50.9688 184.88 51.0746 184.88 51.2863V62.5572Z" fill="#363636"/>
<path d="M195.086 62.5572C195.086 62.7689 195.189 62.8747 195.395 62.8747H203.382C203.605 62.8747 203.717 62.7689 203.717 62.5572V61.0116C203.717 60.7999 203.605 60.6941 203.382 60.6941H197.425V57.7531H201.853C202.093 57.7531 202.213 57.6473 202.213 57.4356V55.915C202.213 55.8036 202.179 55.7228 202.112 55.6727C202.051 55.617 201.965 55.5892 201.853 55.5892H197.425V53.1578H203.232C203.449 53.1578 203.558 53.052 203.558 52.8403V51.2863C203.558 51.0746 203.449 50.9688 203.232 50.9688H195.395C195.189 50.9688 195.086 51.0746 195.086 51.2863V62.5572Z" fill="#363636"/>
<g clip-path="url(#clip0)">
<path d="M32.8968 36.4405C38.3977 36.4405 42.857 31.9933 42.857 26.5073C42.857 21.0214 38.3977 16.5741 32.8968 16.5741C27.396 16.5741 22.9367 21.0214 22.9367 26.5073C22.9367 31.9933 27.396 36.4405 32.8968 36.4405Z" fill="#363636"/>
<path d="M35.6753 2.72282C35.4874 2.70876 35.2991 2.74583 35.1307 2.83009C34.9622 2.91434 34.8198 3.04261 34.7187 3.20123C34.6176 3.35984 34.5616 3.54285 34.5566 3.73074C34.5516 3.91862 34.5978 4.10434 34.6903 4.26808C35.7878 6.3359 34.9377 9.25373 33.0959 10.1172C44.8776 10.1598 54.3115 17.4824 54.3115 26.5073C54.3115 35.5321 44.7247 42.8973 32.8957 42.8973C21.0668 42.8973 11.48 35.559 11.48 26.5073C11.48 18.7697 18.4784 12.2859 27.8966 10.5657C30.395 9.60809 30.7414 6.14751 29.4168 4.1223C29.1352 3.70475 28.7406 3.37542 28.2789 3.17256C27.8171 2.9697 27.3071 2.90163 26.8081 2.97625C12.4155 4.99473 1.51539 14.6274 1.51539 26.2202V58.7402C1.51371 59.401 1.66948 60.0528 1.96987 60.6419C2.27027 61.2309 2.70669 61.7403 3.24319 62.1282C3.77969 62.5161 4.40092 62.7713 5.05569 62.8728C5.71047 62.9743 6.38007 62.9192 7.00932 62.7121L16.1576 59.7203C17.0044 59.4444 17.9172 59.4444 18.764 59.7203L27.9123 62.7121C28.5405 62.9173 29.2085 62.9711 29.8616 62.8691C30.5146 62.7671 31.1341 62.5122 31.6693 62.1253C32.2045 61.7384 32.6402 61.2305 32.9405 60.6433C33.2409 60.056 33.3974 59.4061 33.3972 58.7469V50.8726C33.3971 50.603 33.5027 50.344 33.6913 50.1509C33.8799 49.9577 34.1367 49.8457 34.407 49.8387C50.9539 49.4305 63.2776 39.0129 63.2776 26.2202C63.2754 14.0151 51.1878 3.97428 35.6753 2.72282Z" fill="#363636"/>
</g>
<defs>
<clipPath id="clip0">
<rect width="63.2754" height="60.1562" fill="white" transform="translate(0 2.71848)"/>
</clipPath>
</defs>
</svg>
